<svg width="56" height="58" viewBox="0 0 56 58" fill="none" xmlns="http://www.w3.org/2000/svg">
<g clip-path="url(#clip0_645_9071)">
<rect width="56" height="57.4737" rx="8" fill="#FCCCFD"/>
<g clip-path="url(#clip1_645_9071)">
<path fill-rule="evenodd" clip-rule="evenodd" d="M35.6955 37.2235C35.6955 37.2235 37.8797 37.9551 39.2242 39.8164C40.5686 41.6777 49.8968 52.4921 50.3255 52.9296C51.0313 52.8095 52.8756 54.7837 52.4998 55.3271C52.364 55.5225 50.0256 56.8279 47.9348 58.3718C47.7579 58.4607 47.5581 58.4914 47.3632 58.4597C47.1056 58.3862 46.1899 55.5906 45.9517 55.3271C45.7926 55.1209 45.698 54.8711 45.68 54.6098L38.3791 48.1097C38.3791 48.1097 34.0987 42.7392 35.6955 37.2235Z" fill="#F2BA95"/>
<path fill-rule="evenodd" clip-rule="evenodd" d="M36.4419 61.9796L36.3908 61.7429C36.4753 61.6174 36.5115 61.4647 36.4923 61.3139C36.4731 61.163 36.3999 61.0247 36.2867 60.9252L38.8203 50.4587C39.4396 45.3859 36.9607 42.9974 35.7062 37.2468C35.7047 37.2383 35.7011 37.2302 35.6956 37.2235C35.6656 37.2056 34.5947 37.0173 32.6556 36.5063L27.7383 40.2073L23.0187 36.4991C21.0779 37.0173 20.3721 37.1321 19.5852 37.3957C19.5126 41.1671 19.0442 44.9198 18.1879 48.5902C18.7331 52.0115 19.6699 56.0891 19.4617 60.7459C19.4617 60.7459 19.6258 61.7859 20.3439 61.9312C21.062 62.0764 28.7687 62.7471 36.4419 61.9796Z" fill="#E84E7F"/>
<path fill-rule="evenodd" clip-rule="evenodd" d="M18.9095 44.9448C18.7331 46.1031 18.4896 47.3332 18.1879 48.5884C18.5884 51.0988 19.1988 53.9589 19.4123 57.1453C19.8322 56.3438 20.6827 55.1334 22.1471 54.6959C24.4108 54.0199 30.182 53.3887 30.182 53.3887L31.5564 57.5398L37.9505 53.568L36.8407 51.6296H25.2541C23.1228 51.6296 22.8123 51.4503 22.1912 50.9966C21.5701 50.543 19.7334 44.2813 19.7334 44.2813L18.9095 44.9448Z" fill="#D02E66"/>
<path fill-rule="evenodd" clip-rule="evenodd" d="M33.9347 36.8254C33.5625 36.7358 33.1355 36.6282 32.6556 36.4991L27.7383 40.2001L23.0186 36.4991C22.4417 36.6533 21.9741 36.7716 21.5807 36.8685C21.9865 38.8194 23.6732 42.2479 30.6019 41.1863C30.6019 41.1863 33.8942 40.019 33.9347 36.8254Z" fill="white"/>
<path fill-rule="evenodd" clip-rule="evenodd" d="M27.8371 27.7163C26.934 27.7187 26.0686 28.0842 25.4299 28.733C24.7912 29.3817 24.4311 30.2611 24.4283 31.1788V35.2529C24.4283 35.2529 24.2395 36.5081 23.0168 36.5081C23.0168 36.5081 24.0984 40.1428 27.7365 40.2091H27.9324C31.5705 40.1428 32.6538 36.5081 32.6538 36.5081C31.4311 36.5081 31.2423 35.2529 31.2423 35.2529V31.1788C31.239 30.2618 30.8793 29.3833 30.2414 28.7347C29.6036 28.0861 28.7394 27.7201 27.8371 27.7163Z" fill="#EE8B83"/>
<path fill-rule="evenodd" clip-rule="evenodd" d="M24.5907 34.3796C24.9515 34.099 25.4069 33.9749 25.8575 34.0344C26.308 34.0939 26.7171 34.3321 26.9955 34.697L27.2937 35.0879C27.5708 35.4538 27.694 35.9163 27.6365 36.3743C27.579 36.8323 27.3453 37.2485 26.9867 37.5319C26.6251 37.8122 26.169 37.9354 25.7183 37.8746C25.2675 37.8137 24.8589 37.5738 24.5818 37.2074L24.2907 36.8236C24.0128 36.4586 23.8884 35.9967 23.9446 35.5387C24.0008 35.0808 24.2331 34.6641 24.5907 34.3796Z" fill="#383268"/>
<path fill-rule="evenodd" clip-rule="evenodd" d="M26.8773 37.0908C27.1711 36.7386 27.5903 36.5191 28.0431 36.4805C28.4958 36.4418 28.9452 36.5871 29.2927 36.8846L29.665 37.2038C30.011 37.5023 30.2267 37.928 30.2647 38.3877C30.3027 38.8474 30.16 39.3037 29.8679 39.6568C29.5738 40.0085 29.1548 40.2277 28.7024 40.2666C28.2499 40.3056 27.8006 40.1612 27.4525 39.8648L27.0802 39.5385C26.7361 39.2398 26.5218 38.8153 26.4839 38.357C26.4459 37.8988 26.5872 37.4438 26.8773 37.0908Z" fill="#383268"/>
<path fill-rule="evenodd" clip-rule="evenodd" d="M28.7315 39.5134C28.7315 39.5134 27.8846 41.007 28.8286 42.5079C31.6674 47.023 33.2395 42.4093 31.7433 39.8774C31.6004 39.6133 31.3976 39.3877 31.1517 39.2192C30.9058 39.0507 30.6239 38.9443 30.3295 38.9087C30.035 38.8731 29.7364 38.9094 29.4585 39.0146C29.1806 39.1197 28.9314 39.2907 28.7315 39.5134Z" fill="#383268"/>
<path fill-rule="evenodd" clip-rule="evenodd" d="M32.555 17.2838C35.9303 18.2467 35.0251 23.359 34.6158 26.3535C34.3159 28.5609 32.5109 30.4257 30.5066 32.2278L30.3302 30.9296C30.3046 30.7339 30.2584 30.5415 30.1926 30.3558L29.2592 30.4849L29.1481 29.99L25.5329 30.6122C26.3692 32.8016 27.5496 36.3341 24.4266 35.2529C21.3037 34.1716 21.3831 30.6068 20.4639 28.4909C19.7299 26.8072 18.3272 24.4653 18.4084 22.7798C18.4437 22.0446 19.624 21.9424 19.8199 21.2162C21.9971 13.1668 29.4956 13.1309 32.555 17.2838Z" fill="#383268"/>
<path fill-rule="evenodd" clip-rule="evenodd" d="M33.6083 26.0899C33.6083 26.0899 34.2188 25.3529 34.697 25.326C35.1751 25.2991 35.8755 26.0935 35.8967 26.7605C35.9179 27.4276 35.3251 29.8555 33.6577 29.1956C31.9904 28.5358 33.6083 26.0899 33.6083 26.0899Z" fill="#F2BA95"/>
<path fill-rule="evenodd" clip-rule="evenodd" d="M33.1125 26.9166C33.089 26.9396 33.0748 26.9707 33.0725 27.0038C33.0702 27.0369 33.0801 27.0697 33.1002 27.0959C33.1201 27.1146 33.1462 27.1251 33.1734 27.1251C33.2005 27.1251 33.2267 27.1146 33.2466 27.0959C33.2466 27.0959 33.9347 29.0683 34.2417 28.7097C34.5487 28.3511 34.8751 27.9924 34.9474 27.4545C35.0198 26.9166 34.434 26.5185 34.6087 26.3571C34.7834 26.1957 34.9968 26.3768 35.0163 26.393C35.1273 26.4928 35.221 26.611 35.2933 26.7426C35.3002 26.7562 35.3101 26.768 35.3222 26.7771C35.3343 26.7862 35.3483 26.7924 35.3631 26.7951C35.3779 26.7979 35.3931 26.7972 35.4076 26.7931C35.4221 26.7889 35.4355 26.7815 35.4468 26.7713C35.4744 26.752 35.4944 26.7235 35.5035 26.6908C35.5125 26.658 35.5099 26.623 35.4962 26.592C35.4962 26.592 35.1239 25.8532 34.4728 25.968C33.8571 26.0899 33.1125 26.913 33.1125 26.9166Z" fill="#F0917E"/>
<path fill-rule="evenodd" clip-rule="evenodd" d="M21.0214 27.8328C21.0214 27.8328 20.2381 27.2949 19.7723 27.3917C19.3065 27.4886 18.8372 28.4515 18.9977 29.1024C19.1583 29.7533 20.358 31.9248 21.7925 30.8346C23.2269 29.7443 21.0214 27.8328 21.0214 27.8328Z" fill="#F2BA95"/>
<path fill-rule="evenodd" clip-rule="evenodd" d="M21.7132 28.4909C21.7415 28.5069 21.7632 28.5328 21.7743 28.5638C21.7853 28.5948 21.7849 28.6288 21.7731 28.6595C21.7591 28.6832 21.7368 28.7007 21.7106 28.7084C21.6844 28.716 21.6563 28.7133 21.632 28.7007C21.632 28.7007 21.4891 30.7933 21.1027 30.5244C20.7163 30.2554 20.3017 30.0025 20.0864 29.5076C19.8712 29.0127 20.3352 28.464 20.1252 28.3564C19.9153 28.2489 19.7565 28.482 19.7406 28.5035C19.6578 28.629 19.5981 28.7688 19.5642 28.9159C19.5604 28.9305 19.5535 28.9441 19.544 28.9557C19.5345 28.9674 19.5226 28.9768 19.5091 28.9832C19.4957 28.9897 19.481 28.9932 19.4662 28.9933C19.4513 28.9934 19.4366 28.9903 19.423 28.984C19.392 28.9731 19.3657 28.9516 19.3487 28.9231C19.3316 28.8947 19.3248 28.861 19.3295 28.828C19.3295 28.828 19.4936 28.0157 20.1517 27.9494C20.778 27.8831 21.7114 28.4891 21.7132 28.4909Z" fill="#F0917E"/>
<path fill-rule="evenodd" clip-rule="evenodd" d="M25.9034 16.407C34.36 15.3652 34.0195 22.2132 33.9895 27.7037C33.9986 29.0529 33.6316 30.3771 32.9309 31.5231C32.9309 31.5231 30.8295 33.9797 30.0673 34.5356C29.5669 34.8642 29.0015 35.0768 28.4112 35.1583C27.8208 35.2398 27.22 35.1882 26.6515 35.0072C25.7694 34.6755 23.1069 32.8805 23.1069 32.8805C22.1304 31.9698 21.4275 30.7967 21.0797 29.4969C19.6135 24.2089 17.4786 17.7034 25.9034 16.407Z" fill="#F2BA95"/>
<path fill-rule="evenodd" clip-rule="evenodd" d="M32.8144 22.8748C32.8144 22.8748 29.7956 23.4809 29.4409 20.4254C29.0863 17.3699 28.5587 19.6256 28.5587 19.6256L27.853 20.3429C27.853 20.3429 23.7756 25.0965 21.0955 25.0051C18.4154 24.9136 21.4942 22.1845 21.8012 21.937C22.1082 21.6895 30.7995 18.3722 30.7995 18.3722L32.8144 22.8748Z" fill="#EE8B83"/>
<path fill-rule="evenodd" clip-rule="evenodd" d="M21.7059 22.9555C21.7059 22.9555 22.0182 26.3625 20.8237 28.5591C20.8237 28.5591 19.0117 23.4343 19.5234 22.5054C20.0351 21.5766 21.7059 22.9555 21.7059 22.9555Z" fill="#383268"/>
<path fill-rule="evenodd" clip-rule="evenodd" d="M31.8264 22.1773C31.8264 22.1773 32.555 25.396 33.9948 26.5239C33.9948 26.5239 34.1818 21.8617 33.6507 21.1929C33.1196 20.524 31.8264 22.1773 31.8264 22.1773Z" fill="#383268"/>
<path fill-rule="evenodd" clip-rule="evenodd" d="M32.9449 22.5503C32.9449 22.5503 29.8661 22.7852 29.4902 20.2981C28.8268 22.1163 27.0025 22.0912 27.8529 20.3375C25.7357 21.8133 20.7196 26.2782 18.3395 24.503C14.9872 21.9926 17.2191 15.6987 20.0527 18.5444C20.8149 13.0897 31.701 9.88173 33.2889 17.5295C33.2889 17.5295 37.1405 20.0452 32.9449 22.5503Z" fill="#403B79"/>
<path fill-rule="evenodd" clip-rule="evenodd" d="M17.3956 18.5031C18.9324 20.2963 21.9335 21.0386 26.9849 17.8253C26.9849 17.8253 20.8096 25.0409 16.6828 21.4278C16.5752 20.2945 16.8645 19.1863 17.3956 18.5031Z" fill="#514D8B"/>
<path fill-rule="evenodd" clip-rule="evenodd" d="M32.9449 22.5503C32.9449 22.5503 29.8661 22.7852 29.4902 20.2981C29.0156 21.5981 27.9464 21.9603 27.6888 21.4152C27.7029 21.4152 28.1105 21.6842 28.8092 20.6639C29.5079 19.6436 29.619 19.5037 30.1078 20.1116C30.54 20.6495 34.037 22.5718 34.8927 19.8032C34.9809 20.6262 34.5557 21.5963 32.9519 22.5503H32.9449ZM27.8529 20.3375C27.8529 20.3375 26.3056 20.5312 22.2211 22.5036C18.1366 24.4761 16.8398 22.2777 16.8398 22.2777C17.082 23.167 17.6099 23.9484 18.3395 24.4976C20.7196 26.2782 25.7375 21.8133 27.8529 20.3375Z" fill="#383268"/>
<path fill-rule="evenodd" clip-rule="evenodd" d="M19.5852 37.3867C17.4132 37.9533 14.9978 41.7279 12.5542 44.1056C12.4841 44.1747 12.3984 44.2254 12.3046 44.2532C12.2108 44.281 12.1118 44.2851 12.0161 44.2652L10.8957 44.6059C10.8957 44.6059 11.3809 47.2956 10.841 51.0002L10.3999 51.2638L10.8622 51.7856C10.9162 51.8401 10.9847 51.8775 11.0592 51.8931C11.1338 51.9087 11.2113 51.9019 11.2821 51.8735C11.5397 51.7766 18.1878 48.5813 18.1878 48.5813C18.1878 48.5813 21.2472 43.2933 19.5852 37.3867Z" fill="#F2BA95"/>
<path fill-rule="evenodd" clip-rule="evenodd" d="M13.9057 32.9038C13.7331 33.2579 13.6186 33.6383 13.567 34.0299C13.5281 34.5553 12.4448 49.6518 12.4113 50.2614C12.3778 50.8711 11.8114 51.9183 10.4581 52.1711C9.10489 52.424 7.10057 50.9966 7 49.4007C6.89944 47.8048 9.71712 34.7418 9.91473 33.5153C10.1123 32.2888 9.93413 31.9893 9.93413 31.9893L13.9057 32.9038Z" fill="#F2BA95"/>
<path fill-rule="evenodd" clip-rule="evenodd" d="M13.9057 32.9038C13.7331 33.2579 13.6187 33.6383 13.567 34.0299C13.567 34.116 13.5264 34.5912 13.4735 35.3246C13.1894 34.966 12.5913 34.2308 12.3337 33.908C12.0944 33.6328 11.7848 33.4305 11.4391 33.3234L12.586 32.6062L13.9057 32.9038Z" fill="#EE8B83"/>
<path fill-rule="evenodd" clip-rule="evenodd" d="M13.9657 26.8789L14.4633 21.9388C14.4956 21.8256 14.4862 21.7044 14.4368 21.5977C14.3874 21.4911 14.3015 21.4064 14.1951 21.3596C13.8087 21.1803 13.3235 21.3471 13.2264 22.2956C13.1294 23.2442 12.7536 26.9578 12.7536 26.9578L10.4493 27.6302C10.0963 28.1025 9.80019 28.616 9.56715 29.1598C9.26823 29.8899 9.19141 30.6944 9.34661 31.4693C9.456 32.2099 9.87592 33.1083 10.414 33.2445C10.9522 33.3808 13.4135 33.3683 13.9057 32.9003C13.9057 32.9003 15.0331 30.3486 15.1549 29.9918C15.2766 29.635 15.2025 29.5596 15.3313 29.2745C15.4601 28.9894 17.3321 25.1969 17.6956 24.4815C18.059 23.766 17.5985 23.3357 17.3674 23.3105C17.1363 23.2854 16.6281 23.4092 16.337 24.087C16.0459 24.7648 14.5179 27.2357 14.458 27.3146C14.398 27.3935 13.9481 27.1658 13.9657 26.8789Z" fill="#F2BA95"/>
<path fill-rule="evenodd" clip-rule="evenodd" d="M12.0936 26.5902L12.5135 27.0349L12.4694 27.9135L11.7849 27.9889L12.0936 26.5902Z" fill="#F2BA95"/>
<path fill-rule="evenodd" clip-rule="evenodd" d="M10.6575 27.0761L10.8868 27.2124L10.9468 27.6553L11.2256 28.0122L11.0809 28.5555L10.444 28.1484L10.6575 27.0761Z" fill="#F2BA95"/>
<path fill-rule="evenodd" clip-rule="evenodd" d="M10.6574 27.0761C10.6574 27.0761 10.668 28.1735 10.6574 28.3887C10.6468 28.6039 10.4633 28.6667 10.2022 28.6971C9.94109 28.7276 9.81405 28.5555 9.76642 28.3278C9.71878 28.1 9.65703 27.5334 9.8017 27.2913C9.94638 27.0492 10.5286 26.9865 10.6574 27.0761Z" fill="#F2BA95"/>
<path fill-rule="evenodd" clip-rule="evenodd" d="M12.0937 26.5902C12.0937 26.5902 12.1414 28.1789 12.1661 28.7958C12.1908 29.4126 11.8996 29.6027 11.7109 29.6152C11.5221 29.6278 11.058 29.6762 10.9663 29.1042C10.8745 28.5322 10.7899 27.311 10.7899 27.0708C10.7899 26.8305 11.3174 26.0236 12.0937 26.5902Z" fill="#F2BA95"/>
<path fill-rule="evenodd" clip-rule="evenodd" d="M10.4139 33.2499C10.9433 33.3862 13.4134 33.3736 13.9056 32.9056C13.9056 32.9056 14.389 31.81 14.7578 30.9547C14.7578 30.9547 14.2391 31.5805 14.0203 30.8543C13.8015 30.1281 13.6939 29.6457 13.6321 29.4485C13.513 29.1842 13.3593 28.9375 13.1752 28.7151C13.0164 28.5124 12.5435 27.8705 12.4412 27.7791C12.3389 27.6876 11.6525 27.9584 11.6172 28.5609C11.5819 29.1634 12.2842 30.354 12.2842 30.354C12.2842 30.354 10.0611 31.29 10.4139 33.2499Z" fill="#F2BA95"/>
<path fill-rule="evenodd" clip-rule="evenodd" d="M14.0203 30.8525C13.8033 30.1352 13.6939 29.6457 13.6321 29.4485C13.513 29.1842 13.3593 28.9375 13.1752 28.7151C13.0164 28.5124 12.5435 27.8705 12.4412 27.7791C12.4041 27.745 12.2895 27.7593 12.1554 27.8221C12.0084 27.8844 11.8808 27.986 11.7861 28.1161C11.6913 28.2461 11.633 28.3998 11.6172 28.5609C11.5802 29.1651 12.2842 30.354 12.2842 30.354C12.2842 30.354 10.0611 31.29 10.4139 33.2499L14.0203 30.8525ZM11.8836 29.5578C11.8301 29.5908 11.7697 29.6105 11.7072 29.6152C11.5202 29.6278 11.0473 29.6708 10.9627 29.1042C10.878 28.5375 10.7862 27.311 10.7862 27.0708C10.7862 26.8305 11.3067 26.0236 12.083 26.5902C12.083 26.5902 12.1024 27.216 12.1218 27.8346L11.8731 29.5578H11.8836ZM10.6574 27.0761C10.6574 27.0761 10.668 28.1735 10.6574 28.3887C10.6468 28.6039 10.4633 28.6667 10.2022 28.6971C9.94109 28.7276 9.81405 28.5555 9.76642 28.3278C9.71878 28.1 9.65703 27.5334 9.8017 27.2913C9.94638 27.0492 10.5286 26.9865 10.6574 27.0761Z" fill="#F2BA95"/>
<path fill-rule="evenodd" clip-rule="evenodd" d="M14.1703 30.8077C14.1787 30.847 14.1723 30.8881 14.1522 30.9227C14.1321 30.9574 14.0999 30.9831 14.062 30.9946C14.0241 31.0062 13.9833 31.0028 13.9477 30.9851C13.9122 30.9674 13.8845 30.9367 13.8703 30.8991C13.7292 30.4257 13.6339 30.0635 13.5686 29.8125C13.528 29.6762 13.5051 29.5668 13.4822 29.4969C13.4379 29.3817 13.3785 29.2732 13.3057 29.1741C13.2193 29.0468 13.1205 28.9141 13.0428 28.8155L12.8664 28.5878C12.6794 28.3421 12.4271 28.0068 12.3371 27.9153C12.2981 27.9215 12.2601 27.9329 12.2242 27.9494C12.2046 27.9667 12.1808 27.9784 12.1554 27.9835C12.0479 28.0421 11.9541 28.1234 11.8801 28.222C11.8068 28.3207 11.7639 28.4392 11.7566 28.5627C11.7739 28.8697 11.8545 29.1697 11.993 29.4431C12.0027 29.4527 12.011 29.4635 12.0177 29.4754C12.0311 29.4983 12.039 29.5241 12.0407 29.5507C12.1515 29.796 12.2746 30.0354 12.4094 30.2679C12.4309 30.3041 12.4374 30.3474 12.4274 30.3884C12.4175 30.4294 12.392 30.4648 12.3565 30.4867L12.3283 30.4992C12.1801 30.5656 10.2499 31.464 10.5639 33.223C10.5701 33.2636 10.5605 33.305 10.5371 33.3385C10.5137 33.372 10.4784 33.3949 10.4386 33.4023C10.3988 33.4082 10.3582 33.3982 10.3254 33.3745C10.2926 33.3508 10.2699 33.3152 10.2622 33.275C9.94639 31.5249 11.5414 30.5441 12.0583 30.2751C11.9913 30.155 11.8942 29.9703 11.7972 29.7605L11.7249 29.7712H11.7125C11.4761 29.7874 10.9186 29.8232 10.8145 29.1239C10.7933 28.9876 10.7721 28.8119 10.7527 28.6218C10.7151 28.6735 10.667 28.7164 10.6116 28.7474H10.601C10.4842 28.804 10.3578 28.8374 10.2287 28.846C10.1579 28.8598 10.0851 28.8579 10.015 28.8406C9.94503 28.8233 9.8795 28.7909 9.82288 28.7456C9.71238 28.6448 9.63894 28.5089 9.61469 28.36C9.5717 28.1417 9.55276 27.9192 9.55823 27.6966C9.55529 27.5272 9.59347 27.3597 9.66939 27.2088C9.66992 27.2041 9.66992 27.1993 9.66939 27.1945L9.67997 27.1819C9.81511 27.0293 9.99868 26.9296 10.1987 26.9004C10.3513 26.8653 10.5101 26.869 10.661 26.9112C10.6935 26.8252 10.7368 26.7439 10.7898 26.6691C10.8731 26.5497 10.9786 26.448 11.1003 26.3696C11.2455 26.2757 11.4152 26.2282 11.5872 26.2334C11.8048 26.2457 12.0134 26.3251 12.1854 26.4611C12.2049 26.4752 12.221 26.4937 12.2323 26.5152C12.2436 26.5366 12.2499 26.5605 12.2506 26.5848C12.2506 26.5848 12.2648 27.069 12.2824 27.6105H12.3C12.3408 27.6016 12.383 27.6016 12.4238 27.6105C12.4646 27.6195 12.503 27.6372 12.5365 27.6625C12.6247 27.7432 12.9123 28.1215 13.1187 28.3959L13.2951 28.6182C13.3745 28.7205 13.4716 28.8585 13.5704 28.9966C13.6608 29.1215 13.7339 29.2584 13.7874 29.4036C13.8103 29.4754 13.8386 29.583 13.8774 29.7318C13.9444 29.9882 14.0397 30.354 14.1756 30.8077H14.1703ZM12.3442 27.9135L12.3283 27.8974C12.3142 27.8849 12.3406 27.9117 12.3459 27.9189L12.3442 27.9135ZM11.6384 28.0391C11.7299 27.9166 11.8437 27.8131 11.9736 27.7342C11.9595 27.2859 11.9454 26.8502 11.9401 26.6763C11.8356 26.6036 11.7137 26.5609 11.5872 26.5525C11.481 26.55 11.3765 26.58 11.2873 26.6386C11.1981 26.6942 11.1203 26.7666 11.0579 26.852C11.0062 26.9165 10.9705 26.9928 10.9538 27.0744C10.9538 27.1945 10.9768 27.6123 11.0138 28.0624C11.0456 28.4353 11.0844 28.8262 11.1232 29.0791C11.1814 29.4664 11.499 29.4682 11.6631 29.4574C11.5342 29.1761 11.4628 28.8711 11.4532 28.5609C11.4644 28.3752 11.5288 28.197 11.6384 28.048V28.0391ZM10.5057 28.3851C10.5057 28.2058 10.5057 27.476 10.5057 27.1927C10.4287 27.1889 10.3516 27.1955 10.2763 27.2124C10.1543 27.2273 10.0404 27.282 9.95168 27.3684C9.90131 27.4728 9.87478 27.5875 9.87405 27.7037C9.87029 27.8999 9.88744 28.0959 9.92522 28.2883C9.93662 28.3666 9.97178 28.4393 10.0258 28.4963C10.0493 28.5133 10.076 28.5253 10.1041 28.5318C10.1323 28.5383 10.1614 28.539 10.1899 28.534C10.2783 28.5272 10.3652 28.5066 10.4475 28.473C10.4644 28.4655 10.4789 28.4533 10.4892 28.4377C10.4995 28.4221 10.5052 28.4039 10.5057 28.3851Z" fill="#EE8B83"/>
<path fill-rule="evenodd" clip-rule="evenodd" d="M12.7096 43.7918C12.7109 43.7708 12.7164 43.7504 12.7256 43.7315C12.7347 43.7127 12.7475 43.6959 12.763 43.6821C12.7786 43.6683 12.7967 43.6577 12.8163 43.651C12.8359 43.6443 12.8566 43.6415 12.8772 43.643C12.8978 43.6444 12.9179 43.6499 12.9365 43.6592C12.955 43.6685 12.9715 43.6815 12.9851 43.6973C12.9987 43.7131 13.0091 43.7315 13.0157 43.7514C13.0223 43.7713 13.025 43.7923 13.0236 43.8133L12.7396 47.7995C12.738 47.8212 12.7322 47.8423 12.7224 47.8617C12.7126 47.8811 12.6991 47.8982 12.6826 47.9121C12.6661 47.926 12.647 47.9364 12.6265 47.9426C12.606 47.9488 12.5844 47.9508 12.5631 47.9483C12.5418 47.9465 12.5211 47.9404 12.5022 47.9304C12.4833 47.9203 12.4665 47.9066 12.4528 47.8899C12.4392 47.8732 12.429 47.8539 12.4228 47.8331C12.4166 47.8124 12.4145 47.7906 12.4167 47.769L12.7096 43.7918Z" fill="#EE8B83"/>
</g>
</g>
<rect x="0.5" y="0.5" width="55" height="56.4737" rx="7.5" stroke="white"/>
<defs>
<clipPath id="clip0_645_9071">
<rect width="56" height="57.4737" rx="8" fill="white"/>
</clipPath>
<clipPath id="clip1_645_9071">
<rect width="45" height="69" fill="white" transform="translate(7 13)"/>
</clipPath>
</defs>
</svg>
