<svg width="688" height="559" viewBox="0 0 688 559" fill="none" xmlns="http://www.w3.org/2000/svg">
<path d="M35.7221 376H50.5768L33.1048 326.767H18.4623L0.707368 376H15.6328L18.1794 367.441H33.0341L35.7221 376ZM25.8189 342.612L28.0118 351.101L29.4973 356.406H21.7162L23.0602 351.454L25.3945 342.612H25.8189ZM71.5205 361.57L68.5495 351.667L65.0834 340.773H50.5824L64.4468 376H78.6649L92.6 340.773H78.3112L74.9866 351.171L71.8034 361.57H71.5205ZM111.364 344.805V340.773H97.9943V376H111.576V358.811C111.576 354.355 114.193 352.798 117.447 352.798C119.286 352.798 121.903 353.364 123.884 354.142L127.279 341.197C125.369 340.419 122.823 339.853 120.842 339.853C117.376 339.853 114.052 341.197 111.646 344.876L111.364 344.805ZM145.767 376V340.773H132.256V376H145.767ZM145.767 335.609V324.645H132.256V335.609H145.767ZM185.187 364.753C185.187 357.325 179.458 355.062 172.313 353.718C169.201 353.152 166.725 352.515 166.725 351.03C166.725 350.11 167.362 349.332 169.413 349.332C172.03 349.332 175.143 349.757 179.458 352.445L184.409 344.168C179.953 340.985 174.223 339.783 168.706 339.783C160.854 339.783 153.992 343.744 153.992 351.596C153.992 360.438 161.844 362.489 168.776 363.48C170.545 363.763 171.818 363.975 171.818 365.177C171.818 366.451 170.333 366.804 167.928 366.804C165.098 366.804 161.703 366.38 156.893 362.984L151.446 371.048C156.893 375.434 163.259 376.424 168.989 376.424C178.467 376.424 185.187 372.392 185.187 364.753ZM212.684 349.898V340.773H206.459V331.224H193.231V340.773H189.058V349.898H193.019V363.338C193.019 371.827 196.698 376 204.974 376H212.755V365.248H210.067C207.803 365.248 206.601 365.036 206.601 362.065V349.898H212.684ZM256.388 376V326.767H242.1V376H256.388ZM278.161 344.098V340.773H264.862V376H278.444V357.255C278.444 354.567 279.788 352.091 282.547 352.091C285.376 352.091 286.366 354.001 286.366 356.972V376H299.877V352.869C299.877 344.381 296.057 339.853 287.781 339.853C285.801 339.853 281.91 340.632 278.515 344.168L278.161 344.098ZM326.817 342.754C324.341 340.278 320.521 340.136 318.965 340.136C308.425 340.136 305.525 349.474 305.525 358.528C305.525 368.29 307.081 376.637 318.399 376.637C320.168 376.637 324.553 376.283 327.171 372.888H327.524V376H340.681V323.796H327.029V342.612L326.817 342.754ZM323.139 365.602C320.026 365.602 319.248 362.914 319.248 358.669C319.248 354.142 320.38 351.384 323.28 351.384C326.039 351.384 327.171 353.293 327.171 358.528C327.171 363.833 326.039 365.602 323.139 365.602ZM362.329 376V340.773H348.818V376H362.329ZM362.329 335.609V324.645H348.818V335.609H362.329ZM388.593 361.57L385.622 351.667L382.156 340.773H367.655L381.519 376H395.737L409.672 340.773H395.384L392.059 351.171L388.876 361.57H388.593ZM428.507 376V340.773H414.996V376H428.507ZM428.507 335.609V324.645H414.996V335.609H428.507ZM456.893 342.754C454.417 340.278 450.597 340.136 449.041 340.136C438.501 340.136 435.601 349.474 435.601 358.528C435.601 368.29 437.157 376.637 448.475 376.637C450.243 376.637 454.629 376.283 457.246 372.888H457.6V376H470.757V323.796H457.105V342.612L456.893 342.754ZM453.214 365.602C450.102 365.602 449.324 362.914 449.324 358.669C449.324 354.142 450.456 351.384 453.356 351.384C456.114 351.384 457.246 353.293 457.246 358.528C457.246 363.833 456.114 365.602 453.214 365.602ZM499.195 372.605V376H512.494V340.773H498.912V359.306C498.912 361.994 497.568 364.47 494.81 364.47C491.98 364.47 490.99 362.489 490.99 359.589V340.773H477.479V363.621C477.479 372.109 481.299 376.637 489.575 376.637C491.556 376.637 495.376 376 498.842 372.534L499.195 372.605Z" fill="#623A8E"/>
<path d="M35.7221 449H50.5768L33.1048 399.767H18.4623L0.707368 449H15.6328L18.1794 440.441H33.0341L35.7221 449ZM25.8189 415.612L28.0118 424.101L29.4973 429.406H21.7162L23.0602 424.454L25.3945 415.612H25.8189ZM71.5205 434.57L68.5495 424.667L65.0834 413.773H50.5824L64.4468 449H78.6649L92.6 413.773H78.3112L74.9866 424.171L71.8034 434.57H71.5205ZM111.364 417.805V413.773H97.9943V449H111.576V431.811C111.576 427.355 114.193 425.798 117.447 425.798C119.286 425.798 121.903 426.364 123.884 427.142L127.279 414.197C125.369 413.419 122.823 412.853 120.842 412.853C117.376 412.853 114.052 414.197 111.646 417.876L111.364 417.805ZM145.767 449V413.773H132.256V449H145.767ZM145.767 408.609V397.645H132.256V408.609H145.767ZM185.187 437.753C185.187 430.325 179.458 428.062 172.313 426.718C169.201 426.152 166.725 425.515 166.725 424.03C166.725 423.11 167.362 422.332 169.413 422.332C172.03 422.332 175.143 422.757 179.458 425.445L184.409 417.168C179.953 413.985 174.223 412.783 168.706 412.783C160.854 412.783 153.992 416.744 153.992 424.596C153.992 433.438 161.844 435.489 168.776 436.48C170.545 436.763 171.818 436.975 171.818 438.177C171.818 439.451 170.333 439.804 167.928 439.804C165.098 439.804 161.703 439.38 156.893 435.984L151.446 444.048C156.893 448.434 163.259 449.424 168.989 449.424C178.467 449.424 185.187 445.392 185.187 437.753ZM212.684 422.898V413.773H206.459V404.224H193.231V413.773H189.058V422.898H193.019V436.338C193.019 444.827 196.698 449 204.974 449H212.755V438.248H210.067C207.803 438.248 206.601 438.036 206.601 435.065V422.898H212.684ZM256.388 449V399.767H242.1V449H256.388ZM278.161 417.098V413.773H264.862V449H278.444V430.255C278.444 427.567 279.788 425.091 282.547 425.091C285.376 425.091 286.366 427.001 286.366 429.972V449H299.877V425.869C299.877 417.381 296.057 412.853 287.781 412.853C285.801 412.853 281.91 413.632 278.515 417.168L278.161 417.098ZM326.817 415.754C324.341 413.278 320.521 413.136 318.965 413.136C308.425 413.136 305.525 422.474 305.525 431.528C305.525 441.29 307.081 449.637 318.399 449.637C320.168 449.637 324.553 449.283 327.171 445.888H327.524V449H340.681V396.796H327.029V415.612L326.817 415.754ZM323.139 438.602C320.026 438.602 319.248 435.914 319.248 431.669C319.248 427.142 320.38 424.384 323.28 424.384C326.039 424.384 327.171 426.293 327.171 431.528C327.171 436.833 326.039 438.602 323.139 438.602ZM362.329 449V413.773H348.818V449H362.329ZM362.329 408.609V397.645H348.818V408.609H362.329ZM388.593 434.57L385.622 424.667L382.156 413.773H367.655L381.519 449H395.737L409.672 413.773H395.384L392.059 424.171L388.876 434.57H388.593ZM428.507 449V413.773H414.996V449H428.507ZM428.507 408.609V397.645H414.996V408.609H428.507ZM456.893 415.754C454.417 413.278 450.597 413.136 449.041 413.136C438.501 413.136 435.601 422.474 435.601 431.528C435.601 441.29 437.157 449.637 448.475 449.637C450.243 449.637 454.629 449.283 457.246 445.888H457.6V449H470.757V396.796H457.105V415.612L456.893 415.754ZM453.214 438.602C450.102 438.602 449.324 435.914 449.324 431.669C449.324 427.142 450.456 424.384 453.356 424.384C456.114 424.384 457.246 426.293 457.246 431.528C457.246 436.833 456.114 438.602 453.214 438.602ZM499.195 445.605V449H512.494V413.773H498.912V432.306C498.912 434.994 497.568 437.47 494.81 437.47C491.98 437.47 490.99 435.489 490.99 432.589V413.773H477.479V436.621C477.479 445.109 481.299 449.637 489.575 449.637C491.556 449.637 495.376 449 498.842 445.534L499.195 445.605Z" fill="#623A8E"/>
<path d="M35.7221 534H50.5768L33.1048 484.767H18.4623L0.707368 534H15.6328L18.1794 525.441H33.0341L35.7221 534ZM25.8189 500.612L28.0118 509.101L29.4973 514.406H21.7162L23.0602 509.454L25.3945 500.612H25.8189ZM71.5205 519.57L68.5495 509.667L65.0834 498.773H50.5824L64.4468 534H78.6649L92.6 498.773H78.3112L74.9866 509.171L71.8034 519.57H71.5205ZM111.364 502.805V498.773H97.9943V534H111.576V516.811C111.576 512.355 114.193 510.798 117.447 510.798C119.286 510.798 121.903 511.364 123.884 512.142L127.279 499.197C125.369 498.419 122.823 497.853 120.842 497.853C117.376 497.853 114.052 499.197 111.646 502.876L111.364 502.805ZM145.767 534V498.773H132.256V534H145.767ZM145.767 493.609V482.645H132.256V493.609H145.767ZM185.187 522.753C185.187 515.325 179.458 513.062 172.313 511.718C169.201 511.152 166.725 510.515 166.725 509.03C166.725 508.11 167.362 507.332 169.413 507.332C172.03 507.332 175.143 507.757 179.458 510.445L184.409 502.168C179.953 498.985 174.223 497.783 168.706 497.783C160.854 497.783 153.992 501.744 153.992 509.596C153.992 518.438 161.844 520.489 168.776 521.48C170.545 521.763 171.818 521.975 171.818 523.177C171.818 524.451 170.333 524.804 167.928 524.804C165.098 524.804 161.703 524.38 156.893 520.984L151.446 529.048C156.893 533.434 163.259 534.424 168.989 534.424C178.467 534.424 185.187 530.392 185.187 522.753ZM212.684 507.898V498.773H206.459V489.224H193.231V498.773H189.058V507.898H193.019V521.338C193.019 529.827 196.698 534 204.974 534H212.755V523.248H210.067C207.803 523.248 206.601 523.036 206.601 520.065V507.898H212.684ZM256.388 534V484.767H242.1V534H256.388ZM278.161 502.098V498.773H264.862V534H278.444V515.255C278.444 512.567 279.788 510.091 282.547 510.091C285.376 510.091 286.366 512.001 286.366 514.972V534H299.877V510.869C299.877 502.381 296.057 497.853 287.781 497.853C285.801 497.853 281.91 498.632 278.515 502.168L278.161 502.098ZM326.817 500.754C324.341 498.278 320.521 498.136 318.965 498.136C308.425 498.136 305.525 507.474 305.525 516.528C305.525 526.29 307.081 534.637 318.399 534.637C320.168 534.637 324.553 534.283 327.171 530.888H327.524V534H340.681V481.796H327.029V500.612L326.817 500.754ZM323.139 523.602C320.026 523.602 319.248 520.914 319.248 516.669C319.248 512.142 320.38 509.384 323.28 509.384C326.039 509.384 327.171 511.293 327.171 516.528C327.171 521.833 326.039 523.602 323.139 523.602ZM362.329 534V498.773H348.818V534H362.329ZM362.329 493.609V482.645H348.818V493.609H362.329ZM388.593 519.57L385.622 509.667L382.156 498.773H367.655L381.519 534H395.737L409.672 498.773H395.384L392.059 509.171L388.876 519.57H388.593ZM428.507 534V498.773H414.996V534H428.507ZM428.507 493.609V482.645H414.996V493.609H428.507ZM456.893 500.754C454.417 498.278 450.597 498.136 449.041 498.136C438.501 498.136 435.601 507.474 435.601 516.528C435.601 526.29 437.157 534.637 448.475 534.637C450.243 534.637 454.629 534.283 457.246 530.888H457.6V534H470.757V481.796H457.105V500.612L456.893 500.754ZM453.214 523.602C450.102 523.602 449.324 520.914 449.324 516.669C449.324 512.142 450.456 509.384 453.356 509.384C456.114 509.384 457.246 511.293 457.246 516.528C457.246 521.833 456.114 523.602 453.214 523.602ZM499.195 530.605V534H512.494V498.773H498.912V517.306C498.912 519.994 497.568 522.47 494.81 522.47C491.98 522.47 490.99 520.489 490.99 517.589V498.773H477.479V521.621C477.479 530.109 481.299 534.637 489.575 534.637C491.556 534.637 495.376 534 498.842 530.534L499.195 530.605Z" fill="#623A8E"/>
<path d="M207.722 78L206.768 78.2996L206.988 79H207.722V78ZM222.577 78V79H223.993L223.519 77.6656L222.577 78ZM205.105 28.7672L206.047 28.4327L205.811 27.7672H205.105V28.7672ZM190.462 28.7672V27.7672H189.76L189.522 28.4279L190.462 28.7672ZM172.707 78L171.767 77.6608L171.284 79H172.707V78ZM187.633 78V79H188.379L188.591 78.2852L187.633 78ZM190.179 69.4408V68.4408H189.434L189.221 69.1557L190.179 69.4408ZM205.034 69.4408L205.988 69.1412L205.768 68.4408H205.034V69.4408ZM197.819 44.6122L198.787 44.3621L198.593 43.6122H197.819V44.6122ZM200.012 53.1006L199.044 53.3508L199.046 53.3605L199.049 53.3703L200.012 53.1006ZM201.497 58.4059V59.4059H202.816L202.46 58.1363L201.497 58.4059ZM193.716 58.4059L192.751 58.1439L192.409 59.4059H193.716V58.4059ZM195.06 53.4543L196.025 53.7163L196.027 53.7096L195.06 53.4543ZM197.395 44.6122V43.6122H196.624L196.428 44.357L197.395 44.6122ZM207.722 79H222.577V77H207.722V79ZM223.519 77.6656L206.047 28.4327L204.162 29.1016L221.634 78.3344L223.519 77.6656ZM205.105 27.7672H190.462V29.7672H205.105V27.7672ZM189.522 28.4279L171.767 77.6608L173.648 78.3392L191.403 29.1064L189.522 28.4279ZM172.707 79H187.633V77H172.707V79ZM188.591 78.2852L191.138 69.726L189.221 69.1557L186.674 77.7148L188.591 78.2852ZM190.179 70.4408H205.034V68.4408H190.179V70.4408ZM204.08 69.7405L206.768 78.2996L208.676 77.7004L205.988 69.1412L204.08 69.7405ZM196.851 44.8623L199.044 53.3508L200.98 52.8505L198.787 44.3621L196.851 44.8623ZM199.049 53.3703L200.534 58.6755L202.46 58.1363L200.975 52.831L199.049 53.3703ZM201.497 57.4059H193.716V59.4059H201.497V57.4059ZM194.681 58.6678L196.025 53.7163L194.095 53.1924L192.751 58.1439L194.681 58.6678ZM196.027 53.7096L198.361 44.8675L196.428 44.357L194.093 53.1991L196.027 53.7096ZM197.395 45.6122H197.819V43.6122H197.395V45.6122ZM243.52 63.5697L242.563 63.857L242.776 64.5697H243.52V63.5697ZM240.55 53.6665L241.507 53.3792L241.505 53.3712L241.502 53.3633L240.55 53.6665ZM237.083 42.7731L238.036 42.4698L237.815 41.7731H237.083V42.7731ZM222.582 42.7731V41.7731H221.114L221.652 43.1393L222.582 42.7731ZM236.447 78L235.516 78.3662L235.766 79H236.447V78ZM250.665 78V79H251.345L251.595 78.3678L250.665 78ZM264.6 42.7731L265.53 43.1409L266.071 41.7731H264.6V42.7731ZM250.311 42.7731V41.7731H249.581L249.359 42.4685L250.311 42.7731ZM246.987 53.1714L246.034 52.8668L246.03 52.8787L246.987 53.1714ZM243.803 63.5697V64.5697H244.543L244.76 63.8624L243.803 63.5697ZM244.478 63.2823L241.507 53.3792L239.592 53.9539L242.563 63.857L244.478 63.2823ZM241.502 53.3633L238.036 42.4698L236.13 43.0763L239.597 53.9697L241.502 53.3633ZM237.083 41.7731H222.582V43.7731H237.083V41.7731ZM221.652 43.1393L235.516 78.3662L237.377 77.6338L223.513 42.4068L221.652 43.1393ZM236.447 79H250.665V77H236.447V79ZM251.595 78.3678L265.53 43.1409L263.67 42.4052L249.735 77.6322L251.595 78.3678ZM264.6 41.7731H250.311V43.7731H264.6V41.7731ZM249.359 42.4685L246.034 52.8668L247.939 53.4759L251.264 43.0776L249.359 42.4685ZM246.03 52.8787L242.847 63.277L244.76 63.8624L247.943 53.4641L246.03 52.8787ZM243.803 62.5697H243.52V64.5697H243.803V62.5697ZM283.364 46.8051H282.364V47.5858L283.121 47.7752L283.364 46.8051ZM283.364 42.7731H284.364V41.7731H283.364V42.7731ZM269.994 42.7731V41.7731H268.994V42.7731H269.994ZM269.994 78H268.994V79H269.994V78ZM283.576 78V79H284.576V78H283.576ZM295.884 56.1423L295.518 57.0731L296.566 57.4846L296.851 56.396L295.884 56.1423ZM299.279 43.1975L300.247 43.4512L300.469 42.6024L299.657 42.2714L299.279 43.1975ZM283.646 46.8758L283.404 47.8459L284.094 48.0185L284.483 47.423L283.646 46.8758ZM284.364 46.8051V42.7731H282.364V46.8051H284.364ZM283.364 41.7731H269.994V43.7731H283.364V41.7731ZM268.994 42.7731V78H270.994V42.7731H268.994ZM269.994 79H283.576V77H269.994V79ZM284.576 78V60.8109H282.576V78H284.576ZM284.576 60.8109C284.576 58.7823 285.165 57.5859 285.957 56.8799C286.77 56.1548 287.962 55.7983 289.447 55.7983V53.7983C287.678 53.7983 285.935 54.22 284.626 55.3871C283.295 56.5733 282.576 58.3832 282.576 60.8109H284.576ZM289.447 55.7983C291.134 55.7983 293.627 56.3299 295.518 57.0731L296.25 55.2116C294.18 54.3985 291.438 53.7983 289.447 53.7983V55.7983ZM296.851 56.396L300.247 43.4512L298.312 42.9438L294.917 55.8886L296.851 56.396ZM299.657 42.2714C297.648 41.453 294.973 40.8535 292.842 40.8535V42.8535C294.673 42.8535 297.091 43.3857 298.902 44.1236L299.657 42.2714ZM292.842 40.8535C289.078 40.8535 285.42 42.3362 282.81 46.3285L284.483 47.423C286.683 44.0588 289.674 42.8535 292.842 42.8535V40.8535ZM283.889 45.9056L283.606 45.8349L283.121 47.7752L283.404 47.8459L283.889 45.9056ZM317.767 78V79H318.767V78H317.767ZM317.767 42.7731H318.767V41.7731H317.767V42.7731ZM304.256 42.7731V41.7731H303.256V42.7731H304.256ZM304.256 78H303.256V79H304.256V78ZM317.767 37.6093V38.6093H318.767V37.6093H317.767ZM317.767 26.6451H318.767V25.6451H317.767V26.6451ZM304.256 26.6451V25.6451H303.256V26.6451H304.256ZM304.256 37.6093H303.256V38.6093H304.256V37.6093ZM318.767 78V42.7731H316.767V78H318.767ZM317.767 41.7731H304.256V43.7731H317.767V41.7731ZM303.256 42.7731V78H305.256V42.7731H303.256ZM304.256 79H317.767V77H304.256V79ZM318.767 37.6093V26.6451H316.767V37.6093H318.767ZM317.767 25.6451H304.256V27.6451H317.767V25.6451ZM303.256 26.6451V37.6093H305.256V26.6451H303.256ZM304.256 38.6093H317.767V36.6093H304.256V38.6093ZM344.313 55.7179L344.498 54.7351L344.492 54.734L344.313 55.7179ZM351.458 54.4446L350.929 55.2934L351.793 55.8317L352.316 54.958L351.458 54.4446ZM356.409 46.1684L357.267 46.6818L357.741 45.8906L356.991 45.3547L356.409 46.1684ZM340.776 65.4796L340.934 64.4921L340.926 64.4908L340.918 64.4896L340.776 65.4796ZM328.893 64.9844L329.469 64.1675L328.635 63.5788L328.064 64.4247L328.893 64.9844ZM323.446 73.0484L322.617 72.4887L322.103 73.2507L322.819 73.8273L323.446 73.0484ZM358.187 66.7528C358.187 62.7242 356.605 59.9952 354.011 58.1406C351.495 56.3419 348.087 55.4103 344.498 54.7351L344.128 56.7007C347.684 57.3695 350.713 58.2417 352.848 59.7676C354.904 61.2377 356.187 63.3541 356.187 66.7528H358.187ZM344.492 54.734C342.929 54.4497 341.63 54.1641 340.733 53.7942C339.758 53.3922 339.725 53.095 339.725 53.0299H337.725C337.725 54.4503 338.93 55.2141 339.971 55.6432C341.09 56.1045 342.585 56.4201 344.134 56.7018L344.492 54.734ZM339.725 53.0299C339.725 52.8247 339.78 52.7252 339.897 52.6383C340.066 52.5126 340.487 52.3322 341.413 52.3322V50.3322C340.288 50.3322 339.365 50.5409 338.703 51.0342C337.988 51.5662 337.725 52.3155 337.725 53.0299H339.725ZM341.413 52.3322C343.866 52.3322 346.791 52.7156 350.929 55.2934L351.986 53.5959C347.495 50.7976 344.195 50.3322 341.413 50.3322V52.3322ZM352.316 54.958L357.267 46.6818L355.551 45.655L350.6 53.9312L352.316 54.958ZM356.991 45.3547C352.307 42.0094 346.348 40.7827 340.706 40.7827V42.7827C346.098 42.7827 351.599 43.9611 355.828 46.9822L356.991 45.3547ZM340.706 40.7827C336.627 40.7827 332.725 41.8094 329.814 43.9376C326.871 46.0896 324.992 49.3374 324.992 53.5958H326.992C326.992 50.0024 328.545 47.3437 330.995 45.5521C333.478 43.7367 336.932 42.7827 340.706 42.7827V40.7827ZM324.992 53.5958C324.992 58.3904 327.159 61.424 330.261 63.3337C333.281 65.1931 337.16 65.973 340.635 66.4695L340.918 64.4896C337.461 63.9958 333.948 63.255 331.309 61.6305C328.752 60.0564 326.992 57.6433 326.992 53.5958H324.992ZM340.618 66.467C341.551 66.6163 342.162 66.7237 342.556 66.898C342.732 66.976 342.785 67.0353 342.795 67.0496C342.8 67.0552 342.803 67.0604 342.806 67.0712C342.81 67.0836 342.818 67.1158 342.818 67.1773H344.818C344.818 66.6865 344.683 66.2282 344.388 65.8394C344.105 65.4668 343.728 65.2299 343.365 65.0691C342.68 64.766 341.77 64.6258 340.934 64.4921L340.618 66.467ZM342.818 67.1773C342.818 67.2842 342.793 67.3125 342.78 67.3284C342.752 67.3627 342.663 67.4437 342.429 67.5299C341.936 67.7115 341.118 67.8042 339.928 67.8042V69.8042C341.143 69.8042 342.27 69.72 343.12 69.4066C343.559 69.2451 343.992 68.999 344.317 68.6088C344.657 68.2003 344.818 67.707 344.818 67.1773H342.818ZM339.928 67.8042C337.274 67.8042 334.087 67.4271 329.469 64.1675L328.316 65.8014C333.318 69.3324 336.922 69.8042 339.928 69.8042V67.8042ZM328.064 64.4247L322.617 72.4887L324.275 73.6081L329.721 65.5441L328.064 64.4247ZM322.819 73.8273C328.52 78.418 335.154 79.4244 340.989 79.4244V77.4244C335.364 77.4244 329.265 76.4502 324.073 72.2695L322.819 73.8273ZM340.989 79.4244C345.851 79.4244 350.121 78.3931 353.208 76.2784C356.336 74.1349 358.187 70.9127 358.187 66.7528H356.187C356.187 70.2326 354.679 72.8462 352.077 74.6285C349.434 76.4398 345.605 77.4244 340.989 77.4244V79.4244ZM384.684 51.8981V52.8981H385.684V51.8981H384.684ZM384.684 42.7731H385.684V41.7731H384.684V42.7731ZM378.459 42.7731H377.459V43.7731H378.459V42.7731ZM378.459 33.2236H379.459V32.2236H378.459V33.2236ZM365.231 33.2236V32.2236H364.231V33.2236H365.231ZM365.231 42.7731V43.7731H366.231V42.7731H365.231ZM361.058 42.7731V41.7731H360.058V42.7731H361.058ZM361.058 51.8981H360.058V52.8981H361.058V51.8981ZM365.019 51.8981H366.019V50.8981H365.019V51.8981ZM384.755 78V79H385.755V78H384.755ZM384.755 67.248H385.755V66.248H384.755V67.248ZM378.601 51.8981V50.8981H377.601V51.8981H378.601ZM385.684 51.8981V42.7731H383.684V51.8981H385.684ZM384.684 41.7731H378.459V43.7731H384.684V41.7731ZM379.459 42.7731V33.2236H377.459V42.7731H379.459ZM378.459 32.2236H365.231V34.2236H378.459V32.2236ZM364.231 33.2236V42.7731H366.231V33.2236H364.231ZM365.231 41.7731H361.058V43.7731H365.231V41.7731ZM360.058 42.7731V51.8981H362.058V42.7731H360.058ZM361.058 52.8981H365.019V50.8981H361.058V52.8981ZM364.019 51.8981V65.3381H366.019V51.8981H364.019ZM364.019 65.3381C364.019 69.7025 364.962 73.165 367.16 75.5327C369.373 77.9156 372.679 79 376.974 79V77C372.992 77 370.321 75.9977 368.626 74.1718C366.916 72.3305 366.019 69.4621 366.019 65.3381H364.019ZM376.974 79H384.755V77H376.974V79ZM385.755 78V67.248H383.755V78H385.755ZM384.755 66.248H382.067V68.248H384.755V66.248ZM382.067 66.248C381.504 66.248 381.071 66.2337 380.722 66.18C380.378 66.1271 380.188 66.0456 380.073 65.9618C379.898 65.8344 379.601 65.4769 379.601 64.0648H377.601C377.601 65.6238 377.905 66.8578 378.897 67.5793C379.365 67.9199 379.9 68.0771 380.418 68.1568C380.931 68.2357 381.498 68.248 382.067 68.248V66.248ZM379.601 64.0648V51.8981H377.601V64.0648H379.601ZM378.601 52.8981H384.684V50.8981H378.601V52.8981ZM428.388 78V79H429.388V78H428.388ZM428.388 28.7672H429.388V27.7672H428.388V28.7672ZM414.1 28.7672V27.7672H413.1V28.7672H414.1ZM414.1 78H413.1V79H414.1V78ZM429.388 78V28.7672H427.388V78H429.388ZM428.388 27.7672H414.1V29.7672H428.388V27.7672ZM413.1 28.7672V78H415.1V28.7672H413.1ZM414.1 79H428.388V77H414.1V79ZM450.161 46.0977H449.161V46.9175L449.965 47.0783L450.161 46.0977ZM450.161 42.7731H451.161V41.7731H450.161V42.7731ZM436.862 42.7731V41.7731H435.862V42.7731H436.862ZM436.862 78H435.862V79H436.862V78ZM450.444 78V79H451.444V78H450.444ZM458.366 78H457.366V79H458.366V78ZM471.877 78V79H472.877V78H471.877ZM450.515 46.1684L450.319 47.149L450.856 47.2565L451.236 46.861L450.515 46.1684ZM451.161 46.0977V42.7731H449.161V46.0977H451.161ZM450.161 41.7731H436.862V43.7731H450.161V41.7731ZM435.862 42.7731V78H437.862V42.7731H435.862ZM436.862 79H450.444V77H436.862V79ZM451.444 78V59.2547H449.444V78H451.444ZM451.444 59.2547C451.444 58.0605 451.745 56.9888 452.275 56.2454C452.781 55.536 453.512 55.0909 454.547 55.0909V53.0909C452.823 53.0909 451.503 53.8838 450.647 55.0843C449.815 56.2508 449.444 57.761 449.444 59.2547H451.444ZM454.547 55.0909C455.71 55.0909 456.326 55.4656 456.702 55.9953C457.125 56.5933 457.366 57.5632 457.366 58.9718H459.366C459.366 57.4094 459.113 55.9389 458.334 54.8392C457.506 53.6713 456.213 53.0909 454.547 53.0909V55.0909ZM457.366 58.9718V78H459.366V58.9718H457.366ZM458.366 79H471.877V77H458.366V79ZM472.877 78V54.8691H470.877V78H472.877ZM472.877 54.8691C472.877 50.4953 471.895 46.9553 469.673 44.5062C467.434 42.0384 464.098 40.8535 459.781 40.8535V42.8535C463.741 42.8535 466.452 43.9322 468.192 45.85C469.949 47.7866 470.877 50.7544 470.877 54.8691H472.877ZM459.781 40.8535C457.579 40.8535 453.41 41.7089 449.793 45.4759L451.236 46.861C454.411 43.5543 458.022 42.8535 459.781 42.8535V40.8535ZM450.711 45.1878L450.357 45.1171L449.965 47.0783L450.319 47.149L450.711 45.1878ZM498.817 44.7537L498.11 45.4608L498.689 46.0405L499.372 45.5857L498.817 44.7537ZM499.171 74.8876V73.8876H498.679L498.379 74.2771L499.171 74.8876ZM499.524 74.8876H500.524V73.8876H499.524V74.8876ZM499.524 78H498.524V79H499.524V78ZM512.681 78V79H513.681V78H512.681ZM512.681 25.7962H513.681V24.7962H512.681V25.7962ZM499.029 25.7962V24.7962H498.029V25.7962H499.029ZM499.029 44.6122L499.584 45.4443L500.029 45.1474V44.6122H499.029ZM499.524 44.0466C496.729 41.2518 492.511 41.1364 490.965 41.1364V43.1364C492.532 43.1364 495.953 43.304 498.11 45.4608L499.524 44.0466ZM490.965 41.1364C485.332 41.1364 481.649 43.6663 479.431 47.4291C477.257 51.1179 476.525 55.9241 476.525 60.528H478.525C478.525 56.0776 479.243 51.688 481.154 48.4445C483.022 45.2752 486.059 43.1364 490.965 43.1364V41.1364ZM476.525 60.528C476.525 65.4099 476.903 70.1703 478.84 73.7218C479.824 75.5258 481.212 77.0234 483.139 78.0605C485.057 79.0926 487.449 79.6366 490.399 79.6366V77.6366C487.691 77.6366 485.644 77.1372 484.087 76.2993C482.539 75.4663 481.416 74.267 480.596 72.7641C478.925 69.7017 478.525 65.4078 478.525 60.528H476.525ZM490.399 79.6366C492.213 79.6366 497.038 79.2919 499.963 75.4981L498.379 74.2771C496.068 77.274 492.123 77.6366 490.399 77.6366V79.6366ZM499.171 75.8876H499.524V73.8876H499.171V75.8876ZM498.524 74.8876V78H500.524V74.8876H498.524ZM499.524 79H512.681V77H499.524V79ZM513.681 78V25.7962H511.681V78H513.681ZM512.681 24.7962H499.029V26.7962H512.681V24.7962ZM498.029 25.7962V44.6122H500.029V25.7962H498.029ZM498.474 43.7802L498.262 43.9216L499.372 45.5857L499.584 45.4443L498.474 43.7802ZM495.139 66.6017C494.507 66.6017 494.067 66.4667 493.747 66.2668C493.427 66.0673 493.153 65.7581 492.926 65.2906C492.449 64.3082 492.248 62.7754 492.248 60.6695H490.248C490.248 62.8077 490.436 64.7411 491.126 66.1638C491.483 66.8987 491.987 67.5268 492.689 67.964C493.389 68.4007 494.214 68.6017 495.139 68.6017V66.6017ZM492.248 60.6695C492.248 58.4553 492.531 56.8273 493.066 55.786C493.325 55.281 493.63 54.9428 493.966 54.7273C494.298 54.5144 494.72 54.3836 495.28 54.3836V52.3836C494.39 52.3836 493.583 52.5976 492.887 53.0434C492.195 53.4867 491.673 54.1211 491.287 54.8716C490.531 56.3415 490.248 58.3565 490.248 60.6695H492.248ZM495.28 54.3836C495.857 54.3836 496.273 54.4837 496.585 54.6481C496.886 54.8072 497.154 55.0599 497.385 55.4779C497.881 56.3706 498.171 57.9322 498.171 60.528H500.171C500.171 57.8893 499.895 55.8786 499.134 54.5078C498.738 53.794 498.205 53.242 497.519 52.8795C496.842 52.5222 496.082 52.3836 495.28 52.3836V54.3836ZM498.171 60.528C498.171 63.1663 497.878 64.6946 497.379 65.55C497.148 65.9454 496.877 66.1871 496.557 66.3423C496.221 66.5049 495.768 66.6017 495.139 66.6017V68.6017C495.959 68.6017 496.736 68.4774 497.428 68.1426C498.135 67.8005 498.691 67.2685 499.106 66.5586C499.897 65.2035 500.171 63.195 500.171 60.528H498.171ZM534.329 78V79H535.329V78H534.329ZM534.329 42.7731H535.329V41.7731H534.329V42.7731ZM520.818 42.7731V41.7731H519.818V42.7731H520.818ZM520.818 78H519.818V79H520.818V78ZM534.329 37.6093V38.6093H535.329V37.6093H534.329ZM534.329 26.6451H535.329V25.6451H534.329V26.6451ZM520.818 26.6451V25.6451H519.818V26.6451H520.818ZM520.818 37.6093H519.818V38.6093H520.818V37.6093ZM535.329 78V42.7731H533.329V78H535.329ZM534.329 41.7731H520.818V43.7731H534.329V41.7731ZM519.818 42.7731V78H521.818V42.7731H519.818ZM520.818 79H534.329V77H520.818V79ZM535.329 37.6093V26.6451H533.329V37.6093H535.329ZM534.329 25.6451H520.818V27.6451H534.329V25.6451ZM519.818 26.6451V37.6093H521.818V26.6451H519.818ZM520.818 38.6093H534.329V36.6093H520.818V38.6093ZM560.593 63.5697L559.635 63.857L559.849 64.5697H560.593V63.5697ZM557.622 53.6665L558.58 53.3792L558.577 53.3712L558.575 53.3633L557.622 53.6665ZM554.156 42.7731L555.109 42.4698L554.887 41.7731H554.156V42.7731ZM539.655 42.7731V41.7731H538.186L538.724 43.1393L539.655 42.7731ZM553.519 78L552.589 78.3662L552.838 79H553.519V78ZM567.737 78V79H568.417L568.667 78.3678L567.737 78ZM581.672 42.7731L582.602 43.1409L583.143 41.7731H581.672V42.7731ZM567.384 42.7731V41.7731H566.653L566.431 42.4685L567.384 42.7731ZM564.059 53.1714L563.106 52.8668L563.103 52.8787L564.059 53.1714ZM560.876 63.5697V64.5697H561.615L561.832 63.8624L560.876 63.5697ZM561.551 63.2823L558.58 53.3792L556.664 53.9539L559.635 63.857L561.551 63.2823ZM558.575 53.3633L555.109 42.4698L553.203 43.0763L556.669 53.9697L558.575 53.3633ZM554.156 41.7731H539.655V43.7731H554.156V41.7731ZM538.724 43.1393L552.589 78.3662L554.45 77.6338L540.585 42.4068L538.724 43.1393ZM553.519 79H567.737V77H553.519V79ZM568.667 78.3678L582.602 43.1409L580.743 42.4052L566.807 77.6322L568.667 78.3678ZM581.672 41.7731H567.384V43.7731H581.672V41.7731ZM566.431 42.4685L563.106 52.8668L565.011 53.4759L568.336 43.0776L566.431 42.4685ZM563.103 52.8787L559.92 63.277L561.832 63.8624L565.015 53.4641L563.103 52.8787ZM560.876 62.5697H560.593V64.5697H560.876V62.5697ZM600.507 78V79H601.507V78H600.507ZM600.507 42.7731H601.507V41.7731H600.507V42.7731ZM586.996 42.7731V41.7731H585.996V42.7731H586.996ZM586.996 78H585.996V79H586.996V78ZM600.507 37.6093V38.6093H601.507V37.6093H600.507ZM600.507 26.6451H601.507V25.6451H600.507V26.6451ZM586.996 26.6451V25.6451H585.996V26.6451H586.996ZM586.996 37.6093H585.996V38.6093H586.996V37.6093ZM601.507 78V42.7731H599.507V78H601.507ZM600.507 41.7731H586.996V43.7731H600.507V41.7731ZM585.996 42.7731V78H587.996V42.7731H585.996ZM586.996 79H600.507V77H586.996V79ZM601.507 37.6093V26.6451H599.507V37.6093H601.507ZM600.507 25.6451H586.996V27.6451H600.507V25.6451ZM585.996 26.6451V37.6093H587.996V26.6451H585.996ZM586.996 38.6093H600.507V36.6093H586.996V38.6093ZM628.893 44.7537L628.185 45.4608L628.765 46.0405L629.447 45.5857L628.893 44.7537ZM629.246 74.8876V73.8876H628.754L628.454 74.2771L629.246 74.8876ZM629.6 74.8876H630.6V73.8876H629.6V74.8876ZM629.6 78H628.6V79H629.6V78ZM642.757 78V79H643.757V78H642.757ZM642.757 25.7962H643.757V24.7962H642.757V25.7962ZM629.105 25.7962V24.7962H628.105V25.7962H629.105ZM629.105 44.6122L629.659 45.4443L630.105 45.1474V44.6122H629.105ZM629.6 44.0466C626.805 41.2518 622.587 41.1364 621.041 41.1364V43.1364C622.607 43.1364 626.029 43.304 628.185 45.4608L629.6 44.0466ZM621.041 41.1364C615.407 41.1364 611.724 43.6663 609.507 47.4291C607.333 51.1179 606.601 55.9241 606.601 60.528H608.601C608.601 56.0776 609.319 51.688 611.23 48.4445C613.098 45.2752 616.134 43.1364 621.041 43.1364V41.1364ZM606.601 60.528C606.601 65.4099 606.979 70.1703 608.916 73.7218C609.9 75.5258 611.288 77.0234 613.215 78.0605C615.133 79.0926 617.525 79.6366 620.475 79.6366V77.6366C617.766 77.6366 615.719 77.1372 614.162 76.2993C612.615 75.4663 611.491 74.267 610.672 72.7641C609.001 69.7017 608.601 65.4078 608.601 60.528H606.601ZM620.475 79.6366C622.288 79.6366 627.114 79.2919 630.038 75.4981L628.454 74.2771C626.144 77.274 622.198 77.6366 620.475 77.6366V79.6366ZM629.246 75.8876H629.6V73.8876H629.246V75.8876ZM628.6 74.8876V78H630.6V74.8876H628.6ZM629.6 79H642.757V77H629.6V79ZM643.757 78V25.7962H641.757V78H643.757ZM642.757 24.7962H629.105V26.7962H642.757V24.7962ZM628.105 25.7962V44.6122H630.105V25.7962H628.105ZM628.55 43.7802L628.338 43.9216L629.447 45.5857L629.659 45.4443L628.55 43.7802ZM625.214 66.6017C624.583 66.6017 624.143 66.4667 623.822 66.2668C623.502 66.0673 623.228 65.7581 623.001 65.2906C622.525 64.3082 622.324 62.7754 622.324 60.6695H620.324C620.324 62.8077 620.512 64.7411 621.202 66.1638C621.559 66.8987 622.063 67.5268 622.764 67.964C623.465 68.4007 624.29 68.6017 625.214 68.6017V66.6017ZM622.324 60.6695C622.324 58.4553 622.606 56.8273 623.142 55.786C623.401 55.281 623.706 54.9428 624.042 54.7273C624.374 54.5144 624.796 54.3836 625.356 54.3836V52.3836C624.466 52.3836 623.658 52.5976 622.963 53.0434C622.271 53.4867 621.749 54.1211 621.363 54.8716C620.607 56.3415 620.324 58.3565 620.324 60.6695H622.324ZM625.356 54.3836C625.933 54.3836 626.349 54.4837 626.661 54.6481C626.962 54.8072 627.229 55.0599 627.461 55.4779C627.956 56.3706 628.246 57.9322 628.246 60.528H630.246C630.246 57.8893 629.97 55.8786 629.21 54.5078C628.814 53.794 628.281 53.242 627.594 52.8795C626.918 52.5222 626.158 52.3836 625.356 52.3836V54.3836ZM628.246 60.528C628.246 63.1663 627.954 64.6946 627.454 65.55C627.223 65.9454 626.953 66.1871 626.632 66.3423C626.296 66.5049 625.844 66.6017 625.214 66.6017V68.6017C626.035 68.6017 626.811 68.4774 627.503 68.1426C628.21 67.8005 628.767 67.2685 629.181 66.5586C629.973 65.2035 630.246 63.195 630.246 60.528H628.246ZM671.195 74.6046H672.195V73.7848L671.392 73.6241L671.195 74.6046ZM671.195 78H670.195V79H671.195V78ZM684.494 78V79H685.494V78H684.494ZM684.494 42.7731H685.494V41.7731H684.494V42.7731ZM670.912 42.7731V41.7731H669.912V42.7731H670.912ZM662.99 42.7731H663.99V41.7731H662.99V42.7731ZM649.479 42.7731V41.7731H648.479V42.7731H649.479ZM670.842 74.5339L671.038 73.5533L670.513 73.4484L670.135 73.8268L670.842 74.5339ZM670.195 74.6046V78H672.195V74.6046H670.195ZM671.195 79H684.494V77H671.195V79ZM685.494 78V42.7731H683.494V78H685.494ZM684.494 41.7731H670.912V43.7731H684.494V41.7731ZM669.912 42.7731V61.3061H671.912V42.7731H669.912ZM669.912 61.3061C669.912 62.5004 669.611 63.572 669.081 64.3155C668.576 65.0248 667.845 65.4699 666.81 65.4699V67.4699C668.533 67.4699 669.854 66.677 670.71 65.4765C671.541 64.3101 671.912 62.7998 671.912 61.3061H669.912ZM666.81 65.4699C665.659 65.4699 665.039 65.0867 664.658 64.543C664.23 63.9324 663.99 62.9575 663.99 61.5891H661.99C661.99 63.1208 662.245 64.5864 663.02 65.6911C663.841 66.8628 665.131 67.4699 666.81 67.4699V65.4699ZM663.99 61.5891V42.7731H661.99V61.5891H663.99ZM662.99 41.7731H649.479V43.7731H662.99V41.7731ZM648.479 42.7731V65.6211H650.479V42.7731H648.479ZM648.479 65.6211C648.479 69.9948 649.461 73.5348 651.683 75.9839C653.922 78.4517 657.259 79.6366 661.575 79.6366V77.6366C657.616 77.6366 654.904 76.558 653.164 74.6401C651.407 72.7035 650.479 69.7357 650.479 65.6211H648.479ZM661.575 79.6366C663.752 79.6366 667.852 78.9383 671.549 75.241L670.135 73.8268C666.9 77.0617 663.359 77.6366 661.575 77.6366V79.6366ZM670.646 75.5145L670.999 75.5852L671.392 73.6241L671.038 73.5533L670.646 75.5145Z" fill="#919191"/>
<path d="M207.722 163L206.768 163.3L206.988 164H207.722V163ZM222.577 163V164H223.993L223.519 162.666L222.577 163ZM205.105 113.767L206.047 113.433L205.811 112.767H205.105V113.767ZM190.462 113.767V112.767H189.76L189.522 113.428L190.462 113.767ZM172.707 163L171.767 162.661L171.284 164H172.707V163ZM187.633 163V164H188.379L188.591 163.285L187.633 163ZM190.179 154.441V153.441H189.434L189.221 154.156L190.179 154.441ZM205.034 154.441L205.988 154.141L205.768 153.441H205.034V154.441ZM197.819 129.612L198.787 129.362L198.593 128.612H197.819V129.612ZM200.012 138.101L199.044 138.351L199.046 138.361L199.049 138.37L200.012 138.101ZM201.497 143.406V144.406H202.816L202.46 143.136L201.497 143.406ZM193.716 143.406L192.751 143.144L192.409 144.406H193.716V143.406ZM195.06 138.454L196.025 138.716L196.027 138.71L195.06 138.454ZM197.395 129.612V128.612H196.624L196.428 129.357L197.395 129.612ZM207.722 164H222.577V162H207.722V164ZM223.519 162.666L206.047 113.433L204.162 114.102L221.634 163.334L223.519 162.666ZM205.105 112.767H190.462V114.767H205.105V112.767ZM189.522 113.428L171.767 162.661L173.648 163.339L191.403 114.106L189.522 113.428ZM172.707 164H187.633V162H172.707V164ZM188.591 163.285L191.138 154.726L189.221 154.156L186.674 162.715L188.591 163.285ZM190.179 155.441H205.034V153.441H190.179V155.441ZM204.08 154.74L206.768 163.3L208.676 162.7L205.988 154.141L204.08 154.74ZM196.851 129.862L199.044 138.351L200.98 137.851L198.787 129.362L196.851 129.862ZM199.049 138.37L200.534 143.676L202.46 143.136L200.975 137.831L199.049 138.37ZM201.497 142.406H193.716V144.406H201.497V142.406ZM194.681 143.668L196.025 138.716L194.095 138.192L192.751 143.144L194.681 143.668ZM196.027 138.71L198.361 129.867L196.428 129.357L194.093 138.199L196.027 138.71ZM197.395 130.612H197.819V128.612H197.395V130.612ZM243.52 148.57L242.563 148.857L242.776 149.57H243.52V148.57ZM240.55 138.667L241.507 138.379L241.505 138.371L241.502 138.363L240.55 138.667ZM237.083 127.773L238.036 127.47L237.815 126.773H237.083V127.773ZM222.582 127.773V126.773H221.114L221.652 128.139L222.582 127.773ZM236.447 163L235.516 163.366L235.766 164H236.447V163ZM250.665 163V164H251.345L251.595 163.368L250.665 163ZM264.6 127.773L265.53 128.141L266.071 126.773H264.6V127.773ZM250.311 127.773V126.773H249.581L249.359 127.469L250.311 127.773ZM246.987 138.171L246.034 137.867L246.03 137.879L246.987 138.171ZM243.803 148.57V149.57H244.543L244.76 148.862L243.803 148.57ZM244.478 148.282L241.507 138.379L239.592 138.954L242.563 148.857L244.478 148.282ZM241.502 138.363L238.036 127.47L236.13 128.076L239.597 138.97L241.502 138.363ZM237.083 126.773H222.582V128.773H237.083V126.773ZM221.652 128.139L235.516 163.366L237.377 162.634L223.513 127.407L221.652 128.139ZM236.447 164H250.665V162H236.447V164ZM251.595 163.368L265.53 128.141L263.67 127.405L249.735 162.632L251.595 163.368ZM264.6 126.773H250.311V128.773H264.6V126.773ZM249.359 127.469L246.034 137.867L247.939 138.476L251.264 128.078L249.359 127.469ZM246.03 137.879L242.847 148.277L244.76 148.862L247.943 138.464L246.03 137.879ZM243.803 147.57H243.52V149.57H243.803V147.57ZM283.364 131.805H282.364V132.586L283.121 132.775L283.364 131.805ZM283.364 127.773H284.364V126.773H283.364V127.773ZM269.994 127.773V126.773H268.994V127.773H269.994ZM269.994 163H268.994V164H269.994V163ZM283.576 163V164H284.576V163H283.576ZM295.884 141.142L295.518 142.073L296.566 142.485L296.851 141.396L295.884 141.142ZM299.279 128.197L300.247 128.451L300.469 127.602L299.657 127.271L299.279 128.197ZM283.646 131.876L283.404 132.846L284.094 133.018L284.483 132.423L283.646 131.876ZM284.364 131.805V127.773H282.364V131.805H284.364ZM283.364 126.773H269.994V128.773H283.364V126.773ZM268.994 127.773V163H270.994V127.773H268.994ZM269.994 164H283.576V162H269.994V164ZM284.576 163V145.811H282.576V163H284.576ZM284.576 145.811C284.576 143.782 285.165 142.586 285.957 141.88C286.77 141.155 287.962 140.798 289.447 140.798V138.798C287.678 138.798 285.935 139.22 284.626 140.387C283.295 141.573 282.576 143.383 282.576 145.811H284.576ZM289.447 140.798C291.134 140.798 293.627 141.33 295.518 142.073L296.25 140.212C294.18 139.399 291.438 138.798 289.447 138.798V140.798ZM296.851 141.396L300.247 128.451L298.312 127.944L294.917 140.889L296.851 141.396ZM299.657 127.271C297.648 126.453 294.973 125.853 292.842 125.853V127.853C294.673 127.853 297.091 128.386 298.902 129.124L299.657 127.271ZM292.842 125.853C289.078 125.853 285.42 127.336 282.81 131.329L284.483 132.423C286.683 129.059 289.674 127.853 292.842 127.853V125.853ZM283.889 130.906L283.606 130.835L283.121 132.775L283.404 132.846L283.889 130.906ZM317.767 163V164H318.767V163H317.767ZM317.767 127.773H318.767V126.773H317.767V127.773ZM304.256 127.773V126.773H303.256V127.773H304.256ZM304.256 163H303.256V164H304.256V163ZM317.767 122.609V123.609H318.767V122.609H317.767ZM317.767 111.645H318.767V110.645H317.767V111.645ZM304.256 111.645V110.645H303.256V111.645H304.256ZM304.256 122.609H303.256V123.609H304.256V122.609ZM318.767 163V127.773H316.767V163H318.767ZM317.767 126.773H304.256V128.773H317.767V126.773ZM303.256 127.773V163H305.256V127.773H303.256ZM304.256 164H317.767V162H304.256V164ZM318.767 122.609V111.645H316.767V122.609H318.767ZM317.767 110.645H304.256V112.645H317.767V110.645ZM303.256 111.645V122.609H305.256V111.645H303.256ZM304.256 123.609H317.767V121.609H304.256V123.609ZM344.313 140.718L344.498 139.735L344.492 139.734L344.313 140.718ZM351.458 139.445L350.929 140.293L351.793 140.832L352.316 139.958L351.458 139.445ZM356.409 131.168L357.267 131.682L357.741 130.891L356.991 130.355L356.409 131.168ZM340.776 150.48L340.934 149.492L340.926 149.491L340.918 149.49L340.776 150.48ZM328.893 149.984L329.469 149.167L328.635 148.579L328.064 149.425L328.893 149.984ZM323.446 158.048L322.617 157.489L322.103 158.251L322.819 158.827L323.446 158.048ZM358.187 151.753C358.187 147.724 356.605 144.995 354.011 143.141C351.495 141.342 348.087 140.41 344.498 139.735L344.128 141.701C347.684 142.369 350.713 143.242 352.848 144.768C354.904 146.238 356.187 148.354 356.187 151.753H358.187ZM344.492 139.734C342.929 139.45 341.63 139.164 340.733 138.794C339.758 138.392 339.725 138.095 339.725 138.03H337.725C337.725 139.45 338.93 140.214 339.971 140.643C341.09 141.105 342.585 141.42 344.134 141.702L344.492 139.734ZM339.725 138.03C339.725 137.825 339.78 137.725 339.897 137.638C340.066 137.513 340.487 137.332 341.413 137.332V135.332C340.288 135.332 339.365 135.541 338.703 136.034C337.988 136.566 337.725 137.315 337.725 138.03H339.725ZM341.413 137.332C343.866 137.332 346.791 137.716 350.929 140.293L351.986 138.596C347.495 135.798 344.195 135.332 341.413 135.332V137.332ZM352.316 139.958L357.267 131.682L355.551 130.655L350.6 138.931L352.316 139.958ZM356.991 130.355C352.307 127.009 346.348 125.783 340.706 125.783V127.783C346.098 127.783 351.599 128.961 355.828 131.982L356.991 130.355ZM340.706 125.783C336.627 125.783 332.725 126.809 329.814 128.938C326.871 131.09 324.992 134.337 324.992 138.596H326.992C326.992 135.002 328.545 132.344 330.995 130.552C333.478 128.737 336.932 127.783 340.706 127.783V125.783ZM324.992 138.596C324.992 143.39 327.159 146.424 330.261 148.334C333.281 150.193 337.16 150.973 340.635 151.47L340.918 149.49C337.461 148.996 333.948 148.255 331.309 146.631C328.752 145.056 326.992 142.643 326.992 138.596H324.992ZM340.618 151.467C341.551 151.616 342.162 151.724 342.556 151.898C342.732 151.976 342.785 152.035 342.795 152.05C342.8 152.055 342.803 152.06 342.806 152.071C342.81 152.084 342.818 152.116 342.818 152.177H344.818C344.818 151.687 344.683 151.228 344.388 150.839C344.105 150.467 343.728 150.23 343.365 150.069C342.68 149.766 341.77 149.626 340.934 149.492L340.618 151.467ZM342.818 152.177C342.818 152.284 342.793 152.313 342.78 152.328C342.752 152.363 342.663 152.444 342.429 152.53C341.936 152.712 341.118 152.804 339.928 152.804V154.804C341.143 154.804 342.27 154.72 343.12 154.407C343.559 154.245 343.992 153.999 344.317 153.609C344.657 153.2 344.818 152.707 344.818 152.177H342.818ZM339.928 152.804C337.274 152.804 334.087 152.427 329.469 149.167L328.316 150.801C333.318 154.332 336.922 154.804 339.928 154.804V152.804ZM328.064 149.425L322.617 157.489L324.275 158.608L329.721 150.544L328.064 149.425ZM322.819 158.827C328.52 163.418 335.154 164.424 340.989 164.424V162.424C335.364 162.424 329.265 161.45 324.073 157.27L322.819 158.827ZM340.989 164.424C345.851 164.424 350.121 163.393 353.208 161.278C356.336 159.135 358.187 155.913 358.187 151.753H356.187C356.187 155.233 354.679 157.846 352.077 159.629C349.434 161.44 345.605 162.424 340.989 162.424V164.424ZM384.684 136.898V137.898H385.684V136.898H384.684ZM384.684 127.773H385.684V126.773H384.684V127.773ZM378.459 127.773H377.459V128.773H378.459V127.773ZM378.459 118.224H379.459V117.224H378.459V118.224ZM365.231 118.224V117.224H364.231V118.224H365.231ZM365.231 127.773V128.773H366.231V127.773H365.231ZM361.058 127.773V126.773H360.058V127.773H361.058ZM361.058 136.898H360.058V137.898H361.058V136.898ZM365.019 136.898H366.019V135.898H365.019V136.898ZM384.755 163V164H385.755V163H384.755ZM384.755 152.248H385.755V151.248H384.755V152.248ZM378.601 136.898V135.898H377.601V136.898H378.601ZM385.684 136.898V127.773H383.684V136.898H385.684ZM384.684 126.773H378.459V128.773H384.684V126.773ZM379.459 127.773V118.224H377.459V127.773H379.459ZM378.459 117.224H365.231V119.224H378.459V117.224ZM364.231 118.224V127.773H366.231V118.224H364.231ZM365.231 126.773H361.058V128.773H365.231V126.773ZM360.058 127.773V136.898H362.058V127.773H360.058ZM361.058 137.898H365.019V135.898H361.058V137.898ZM364.019 136.898V150.338H366.019V136.898H364.019ZM364.019 150.338C364.019 154.703 364.962 158.165 367.16 160.533C369.373 162.916 372.679 164 376.974 164V162C372.992 162 370.321 160.998 368.626 159.172C366.916 157.331 366.019 154.462 366.019 150.338H364.019ZM376.974 164H384.755V162H376.974V164ZM385.755 163V152.248H383.755V163H385.755ZM384.755 151.248H382.067V153.248H384.755V151.248ZM382.067 151.248C381.504 151.248 381.071 151.234 380.722 151.18C380.378 151.127 380.188 151.046 380.073 150.962C379.898 150.834 379.601 150.477 379.601 149.065H377.601C377.601 150.624 377.905 151.858 378.897 152.579C379.365 152.92 379.9 153.077 380.418 153.157C380.931 153.236 381.498 153.248 382.067 153.248V151.248ZM379.601 149.065V136.898H377.601V149.065H379.601ZM378.601 137.898H384.684V135.898H378.601V137.898ZM428.388 163V164H429.388V163H428.388ZM428.388 113.767H429.388V112.767H428.388V113.767ZM414.1 113.767V112.767H413.1V113.767H414.1ZM414.1 163H413.1V164H414.1V163ZM429.388 163V113.767H427.388V163H429.388ZM428.388 112.767H414.1V114.767H428.388V112.767ZM413.1 113.767V163H415.1V113.767H413.1ZM414.1 164H428.388V162H414.1V164ZM450.161 131.098H449.161V131.917L449.965 132.078L450.161 131.098ZM450.161 127.773H451.161V126.773H450.161V127.773ZM436.862 127.773V126.773H435.862V127.773H436.862ZM436.862 163H435.862V164H436.862V163ZM450.444 163V164H451.444V163H450.444ZM458.366 163H457.366V164H458.366V163ZM471.877 163V164H472.877V163H471.877ZM450.515 131.168L450.319 132.149L450.856 132.257L451.236 131.861L450.515 131.168ZM451.161 131.098V127.773H449.161V131.098H451.161ZM450.161 126.773H436.862V128.773H450.161V126.773ZM435.862 127.773V163H437.862V127.773H435.862ZM436.862 164H450.444V162H436.862V164ZM451.444 163V144.255H449.444V163H451.444ZM451.444 144.255C451.444 143.06 451.745 141.989 452.275 141.245C452.781 140.536 453.512 140.091 454.547 140.091V138.091C452.823 138.091 451.503 138.884 450.647 140.084C449.815 141.251 449.444 142.761 449.444 144.255H451.444ZM454.547 140.091C455.71 140.091 456.326 140.466 456.702 140.995C457.125 141.593 457.366 142.563 457.366 143.972H459.366C459.366 142.409 459.113 140.939 458.334 139.839C457.506 138.671 456.213 138.091 454.547 138.091V140.091ZM457.366 143.972V163H459.366V143.972H457.366ZM458.366 164H471.877V162H458.366V164ZM472.877 163V139.869H470.877V163H472.877ZM472.877 139.869C472.877 135.495 471.895 131.955 469.673 129.506C467.434 127.038 464.098 125.853 459.781 125.853V127.853C463.741 127.853 466.452 128.932 468.192 130.85C469.949 132.787 470.877 135.754 470.877 139.869H472.877ZM459.781 125.853C457.579 125.853 453.41 126.709 449.793 130.476L451.236 131.861C454.411 128.554 458.022 127.853 459.781 127.853V125.853ZM450.711 130.188L450.357 130.117L449.965 132.078L450.319 132.149L450.711 130.188ZM498.817 129.754L498.11 130.461L498.689 131.04L499.372 130.586L498.817 129.754ZM499.171 159.888V158.888H498.679L498.379 159.277L499.171 159.888ZM499.524 159.888H500.524V158.888H499.524V159.888ZM499.524 163H498.524V164H499.524V163ZM512.681 163V164H513.681V163H512.681ZM512.681 110.796H513.681V109.796H512.681V110.796ZM499.029 110.796V109.796H498.029V110.796H499.029ZM499.029 129.612L499.584 130.444L500.029 130.147V129.612H499.029ZM499.524 129.047C496.729 126.252 492.511 126.136 490.965 126.136V128.136C492.532 128.136 495.953 128.304 498.11 130.461L499.524 129.047ZM490.965 126.136C485.332 126.136 481.649 128.666 479.431 132.429C477.257 136.118 476.525 140.924 476.525 145.528H478.525C478.525 141.078 479.243 136.688 481.154 133.445C483.022 130.275 486.059 128.136 490.965 128.136V126.136ZM476.525 145.528C476.525 150.41 476.903 155.17 478.84 158.722C479.824 160.526 481.212 162.023 483.139 163.06C485.057 164.093 487.449 164.637 490.399 164.637V162.637C487.691 162.637 485.644 162.137 484.087 161.299C482.539 160.466 481.416 159.267 480.596 157.764C478.925 154.702 478.525 150.408 478.525 145.528H476.525ZM490.399 164.637C492.213 164.637 497.038 164.292 499.963 160.498L498.379 159.277C496.068 162.274 492.123 162.637 490.399 162.637V164.637ZM499.171 160.888H499.524V158.888H499.171V160.888ZM498.524 159.888V163H500.524V159.888H498.524ZM499.524 164H512.681V162H499.524V164ZM513.681 163V110.796H511.681V163H513.681ZM512.681 109.796H499.029V111.796H512.681V109.796ZM498.029 110.796V129.612H500.029V110.796H498.029ZM498.474 128.78L498.262 128.922L499.372 130.586L499.584 130.444L498.474 128.78ZM495.139 151.602C494.507 151.602 494.067 151.467 493.747 151.267C493.427 151.067 493.153 150.758 492.926 150.291C492.449 149.308 492.248 147.775 492.248 145.669H490.248C490.248 147.808 490.436 149.741 491.126 151.164C491.483 151.899 491.987 152.527 492.689 152.964C493.389 153.401 494.214 153.602 495.139 153.602V151.602ZM492.248 145.669C492.248 143.455 492.531 141.827 493.066 140.786C493.325 140.281 493.63 139.943 493.966 139.727C494.298 139.514 494.72 139.384 495.28 139.384V137.384C494.39 137.384 493.583 137.598 492.887 138.043C492.195 138.487 491.673 139.121 491.287 139.872C490.531 141.342 490.248 143.356 490.248 145.669H492.248ZM495.28 139.384C495.857 139.384 496.273 139.484 496.585 139.648C496.886 139.807 497.154 140.06 497.385 140.478C497.881 141.371 498.171 142.932 498.171 145.528H500.171C500.171 142.889 499.895 140.879 499.134 139.508C498.738 138.794 498.205 138.242 497.519 137.879C496.842 137.522 496.082 137.384 495.28 137.384V139.384ZM498.171 145.528C498.171 148.166 497.878 149.695 497.379 150.55C497.148 150.945 496.877 151.187 496.557 151.342C496.221 151.505 495.768 151.602 495.139 151.602V153.602C495.959 153.602 496.736 153.477 497.428 153.143C498.135 152.8 498.691 152.268 499.106 151.559C499.897 150.203 500.171 148.195 500.171 145.528H498.171ZM534.329 163V164H535.329V163H534.329ZM534.329 127.773H535.329V126.773H534.329V127.773ZM520.818 127.773V126.773H519.818V127.773H520.818ZM520.818 163H519.818V164H520.818V163ZM534.329 122.609V123.609H535.329V122.609H534.329ZM534.329 111.645H535.329V110.645H534.329V111.645ZM520.818 111.645V110.645H519.818V111.645H520.818ZM520.818 122.609H519.818V123.609H520.818V122.609ZM535.329 163V127.773H533.329V163H535.329ZM534.329 126.773H520.818V128.773H534.329V126.773ZM519.818 127.773V163H521.818V127.773H519.818ZM520.818 164H534.329V162H520.818V164ZM535.329 122.609V111.645H533.329V122.609H535.329ZM534.329 110.645H520.818V112.645H534.329V110.645ZM519.818 111.645V122.609H521.818V111.645H519.818ZM520.818 123.609H534.329V121.609H520.818V123.609ZM560.593 148.57L559.635 148.857L559.849 149.57H560.593V148.57ZM557.622 138.667L558.58 138.379L558.577 138.371L558.575 138.363L557.622 138.667ZM554.156 127.773L555.109 127.47L554.887 126.773H554.156V127.773ZM539.655 127.773V126.773H538.186L538.724 128.139L539.655 127.773ZM553.519 163L552.589 163.366L552.838 164H553.519V163ZM567.737 163V164H568.417L568.667 163.368L567.737 163ZM581.672 127.773L582.602 128.141L583.143 126.773H581.672V127.773ZM567.384 127.773V126.773H566.653L566.431 127.469L567.384 127.773ZM564.059 138.171L563.106 137.867L563.103 137.879L564.059 138.171ZM560.876 148.57V149.57H561.615L561.832 148.862L560.876 148.57ZM561.551 148.282L558.58 138.379L556.664 138.954L559.635 148.857L561.551 148.282ZM558.575 138.363L555.109 127.47L553.203 128.076L556.669 138.97L558.575 138.363ZM554.156 126.773H539.655V128.773H554.156V126.773ZM538.724 128.139L552.589 163.366L554.45 162.634L540.585 127.407L538.724 128.139ZM553.519 164H567.737V162H553.519V164ZM568.667 163.368L582.602 128.141L580.743 127.405L566.807 162.632L568.667 163.368ZM581.672 126.773H567.384V128.773H581.672V126.773ZM566.431 127.469L563.106 137.867L565.011 138.476L568.336 128.078L566.431 127.469ZM563.103 137.879L559.92 148.277L561.832 148.862L565.015 138.464L563.103 137.879ZM560.876 147.57H560.593V149.57H560.876V147.57ZM600.507 163V164H601.507V163H600.507ZM600.507 127.773H601.507V126.773H600.507V127.773ZM586.996 127.773V126.773H585.996V127.773H586.996ZM586.996 163H585.996V164H586.996V163ZM600.507 122.609V123.609H601.507V122.609H600.507ZM600.507 111.645H601.507V110.645H600.507V111.645ZM586.996 111.645V110.645H585.996V111.645H586.996ZM586.996 122.609H585.996V123.609H586.996V122.609ZM601.507 163V127.773H599.507V163H601.507ZM600.507 126.773H586.996V128.773H600.507V126.773ZM585.996 127.773V163H587.996V127.773H585.996ZM586.996 164H600.507V162H586.996V164ZM601.507 122.609V111.645H599.507V122.609H601.507ZM600.507 110.645H586.996V112.645H600.507V110.645ZM585.996 111.645V122.609H587.996V111.645H585.996ZM586.996 123.609H600.507V121.609H586.996V123.609ZM628.893 129.754L628.185 130.461L628.765 131.04L629.447 130.586L628.893 129.754ZM629.246 159.888V158.888H628.754L628.454 159.277L629.246 159.888ZM629.6 159.888H630.6V158.888H629.6V159.888ZM629.6 163H628.6V164H629.6V163ZM642.757 163V164H643.757V163H642.757ZM642.757 110.796H643.757V109.796H642.757V110.796ZM629.105 110.796V109.796H628.105V110.796H629.105ZM629.105 129.612L629.659 130.444L630.105 130.147V129.612H629.105ZM629.6 129.047C626.805 126.252 622.587 126.136 621.041 126.136V128.136C622.607 128.136 626.029 128.304 628.185 130.461L629.6 129.047ZM621.041 126.136C615.407 126.136 611.724 128.666 609.507 132.429C607.333 136.118 606.601 140.924 606.601 145.528H608.601C608.601 141.078 609.319 136.688 611.23 133.445C613.098 130.275 616.134 128.136 621.041 128.136V126.136ZM606.601 145.528C606.601 150.41 606.979 155.17 608.916 158.722C609.9 160.526 611.288 162.023 613.215 163.06C615.133 164.093 617.525 164.637 620.475 164.637V162.637C617.766 162.637 615.719 162.137 614.162 161.299C612.615 160.466 611.491 159.267 610.672 157.764C609.001 154.702 608.601 150.408 608.601 145.528H606.601ZM620.475 164.637C622.288 164.637 627.114 164.292 630.038 160.498L628.454 159.277C626.144 162.274 622.198 162.637 620.475 162.637V164.637ZM629.246 160.888H629.6V158.888H629.246V160.888ZM628.6 159.888V163H630.6V159.888H628.6ZM629.6 164H642.757V162H629.6V164ZM643.757 163V110.796H641.757V163H643.757ZM642.757 109.796H629.105V111.796H642.757V109.796ZM628.105 110.796V129.612H630.105V110.796H628.105ZM628.55 128.78L628.338 128.922L629.447 130.586L629.659 130.444L628.55 128.78ZM625.214 151.602C624.583 151.602 624.143 151.467 623.822 151.267C623.502 151.067 623.228 150.758 623.001 150.291C622.525 149.308 622.324 147.775 622.324 145.669H620.324C620.324 147.808 620.512 149.741 621.202 151.164C621.559 151.899 622.063 152.527 622.764 152.964C623.465 153.401 624.29 153.602 625.214 153.602V151.602ZM622.324 145.669C622.324 143.455 622.606 141.827 623.142 140.786C623.401 140.281 623.706 139.943 624.042 139.727C624.374 139.514 624.796 139.384 625.356 139.384V137.384C624.466 137.384 623.658 137.598 622.963 138.043C622.271 138.487 621.749 139.121 621.363 139.872C620.607 141.342 620.324 143.356 620.324 145.669H622.324ZM625.356 139.384C625.933 139.384 626.349 139.484 626.661 139.648C626.962 139.807 627.229 140.06 627.461 140.478C627.956 141.371 628.246 142.932 628.246 145.528H630.246C630.246 142.889 629.97 140.879 629.21 139.508C628.814 138.794 628.281 138.242 627.594 137.879C626.918 137.522 626.158 137.384 625.356 137.384V139.384ZM628.246 145.528C628.246 148.166 627.954 149.695 627.454 150.55C627.223 150.945 626.953 151.187 626.632 151.342C626.296 151.505 625.844 151.602 625.214 151.602V153.602C626.035 153.602 626.811 153.477 627.503 153.143C628.21 152.8 628.767 152.268 629.181 151.559C629.973 150.203 630.246 148.195 630.246 145.528H628.246ZM671.195 159.605H672.195V158.785L671.392 158.624L671.195 159.605ZM671.195 163H670.195V164H671.195V163ZM684.494 163V164H685.494V163H684.494ZM684.494 127.773H685.494V126.773H684.494V127.773ZM670.912 127.773V126.773H669.912V127.773H670.912ZM662.99 127.773H663.99V126.773H662.99V127.773ZM649.479 127.773V126.773H648.479V127.773H649.479ZM670.842 159.534L671.038 158.553L670.513 158.448L670.135 158.827L670.842 159.534ZM670.195 159.605V163H672.195V159.605H670.195ZM671.195 164H684.494V162H671.195V164ZM685.494 163V127.773H683.494V163H685.494ZM684.494 126.773H670.912V128.773H684.494V126.773ZM669.912 127.773V146.306H671.912V127.773H669.912ZM669.912 146.306C669.912 147.5 669.611 148.572 669.081 149.315C668.576 150.025 667.845 150.47 666.81 150.47V152.47C668.533 152.47 669.854 151.677 670.71 150.477C671.541 149.31 671.912 147.8 671.912 146.306H669.912ZM666.81 150.47C665.659 150.47 665.039 150.087 664.658 149.543C664.23 148.932 663.99 147.958 663.99 146.589H661.99C661.99 148.121 662.245 149.586 663.02 150.691C663.841 151.863 665.131 152.47 666.81 152.47V150.47ZM663.99 146.589V127.773H661.99V146.589H663.99ZM662.99 126.773H649.479V128.773H662.99V126.773ZM648.479 127.773V150.621H650.479V127.773H648.479ZM648.479 150.621C648.479 154.995 649.461 158.535 651.683 160.984C653.922 163.452 657.259 164.637 661.575 164.637V162.637C657.616 162.637 654.904 161.558 653.164 159.64C651.407 157.704 650.479 154.736 650.479 150.621H648.479ZM661.575 164.637C663.752 164.637 667.852 163.938 671.549 160.241L670.135 158.827C666.9 162.062 663.359 162.637 661.575 162.637V164.637ZM670.646 160.514L670.999 160.585L671.392 158.624L671.038 158.553L670.646 160.514Z" fill="#919191"/>
<path d="M207.722 248L206.768 248.3L206.988 249H207.722V248ZM222.577 248V249H223.993L223.519 247.666L222.577 248ZM205.105 198.767L206.047 198.433L205.811 197.767H205.105V198.767ZM190.462 198.767V197.767H189.76L189.522 198.428L190.462 198.767ZM172.707 248L171.767 247.661L171.284 249H172.707V248ZM187.633 248V249H188.379L188.591 248.285L187.633 248ZM190.179 239.441V238.441H189.434L189.221 239.156L190.179 239.441ZM205.034 239.441L205.988 239.141L205.768 238.441H205.034V239.441ZM197.819 214.612L198.787 214.362L198.593 213.612H197.819V214.612ZM200.012 223.101L199.044 223.351L199.046 223.361L199.049 223.37L200.012 223.101ZM201.497 228.406V229.406H202.816L202.46 228.136L201.497 228.406ZM193.716 228.406L192.751 228.144L192.409 229.406H193.716V228.406ZM195.06 223.454L196.025 223.716L196.027 223.71L195.06 223.454ZM197.395 214.612V213.612H196.624L196.428 214.357L197.395 214.612ZM207.722 249H222.577V247H207.722V249ZM223.519 247.666L206.047 198.433L204.162 199.102L221.634 248.334L223.519 247.666ZM205.105 197.767H190.462V199.767H205.105V197.767ZM189.522 198.428L171.767 247.661L173.648 248.339L191.403 199.106L189.522 198.428ZM172.707 249H187.633V247H172.707V249ZM188.591 248.285L191.138 239.726L189.221 239.156L186.674 247.715L188.591 248.285ZM190.179 240.441H205.034V238.441H190.179V240.441ZM204.08 239.74L206.768 248.3L208.676 247.7L205.988 239.141L204.08 239.74ZM196.851 214.862L199.044 223.351L200.98 222.851L198.787 214.362L196.851 214.862ZM199.049 223.37L200.534 228.676L202.46 228.136L200.975 222.831L199.049 223.37ZM201.497 227.406H193.716V229.406H201.497V227.406ZM194.681 228.668L196.025 223.716L194.095 223.192L192.751 228.144L194.681 228.668ZM196.027 223.71L198.361 214.867L196.428 214.357L194.093 223.199L196.027 223.71ZM197.395 215.612H197.819V213.612H197.395V215.612ZM243.52 233.57L242.563 233.857L242.776 234.57H243.52V233.57ZM240.55 223.667L241.507 223.379L241.505 223.371L241.502 223.363L240.55 223.667ZM237.083 212.773L238.036 212.47L237.815 211.773H237.083V212.773ZM222.582 212.773V211.773H221.114L221.652 213.139L222.582 212.773ZM236.447 248L235.516 248.366L235.766 249H236.447V248ZM250.665 248V249H251.345L251.595 248.368L250.665 248ZM264.6 212.773L265.53 213.141L266.071 211.773H264.6V212.773ZM250.311 212.773V211.773H249.581L249.359 212.469L250.311 212.773ZM246.987 223.171L246.034 222.867L246.03 222.879L246.987 223.171ZM243.803 233.57V234.57H244.543L244.76 233.862L243.803 233.57ZM244.478 233.282L241.507 223.379L239.592 223.954L242.563 233.857L244.478 233.282ZM241.502 223.363L238.036 212.47L236.13 213.076L239.597 223.97L241.502 223.363ZM237.083 211.773H222.582V213.773H237.083V211.773ZM221.652 213.139L235.516 248.366L237.377 247.634L223.513 212.407L221.652 213.139ZM236.447 249H250.665V247H236.447V249ZM251.595 248.368L265.53 213.141L263.67 212.405L249.735 247.632L251.595 248.368ZM264.6 211.773H250.311V213.773H264.6V211.773ZM249.359 212.469L246.034 222.867L247.939 223.476L251.264 213.078L249.359 212.469ZM246.03 222.879L242.847 233.277L244.76 233.862L247.943 223.464L246.03 222.879ZM243.803 232.57H243.52V234.57H243.803V232.57ZM283.364 216.805H282.364V217.586L283.121 217.775L283.364 216.805ZM283.364 212.773H284.364V211.773H283.364V212.773ZM269.994 212.773V211.773H268.994V212.773H269.994ZM269.994 248H268.994V249H269.994V248ZM283.576 248V249H284.576V248H283.576ZM295.884 226.142L295.518 227.073L296.566 227.485L296.851 226.396L295.884 226.142ZM299.279 213.197L300.247 213.451L300.469 212.602L299.657 212.271L299.279 213.197ZM283.646 216.876L283.404 217.846L284.094 218.018L284.483 217.423L283.646 216.876ZM284.364 216.805V212.773H282.364V216.805H284.364ZM283.364 211.773H269.994V213.773H283.364V211.773ZM268.994 212.773V248H270.994V212.773H268.994ZM269.994 249H283.576V247H269.994V249ZM284.576 248V230.811H282.576V248H284.576ZM284.576 230.811C284.576 228.782 285.165 227.586 285.957 226.88C286.77 226.155 287.962 225.798 289.447 225.798V223.798C287.678 223.798 285.935 224.22 284.626 225.387C283.295 226.573 282.576 228.383 282.576 230.811H284.576ZM289.447 225.798C291.134 225.798 293.627 226.33 295.518 227.073L296.25 225.212C294.18 224.399 291.438 223.798 289.447 223.798V225.798ZM296.851 226.396L300.247 213.451L298.312 212.944L294.917 225.889L296.851 226.396ZM299.657 212.271C297.648 211.453 294.973 210.853 292.842 210.853V212.853C294.673 212.853 297.091 213.386 298.902 214.124L299.657 212.271ZM292.842 210.853C289.078 210.853 285.42 212.336 282.81 216.329L284.483 217.423C286.683 214.059 289.674 212.853 292.842 212.853V210.853ZM283.889 215.906L283.606 215.835L283.121 217.775L283.404 217.846L283.889 215.906ZM317.767 248V249H318.767V248H317.767ZM317.767 212.773H318.767V211.773H317.767V212.773ZM304.256 212.773V211.773H303.256V212.773H304.256ZM304.256 248H303.256V249H304.256V248ZM317.767 207.609V208.609H318.767V207.609H317.767ZM317.767 196.645H318.767V195.645H317.767V196.645ZM304.256 196.645V195.645H303.256V196.645H304.256ZM304.256 207.609H303.256V208.609H304.256V207.609ZM318.767 248V212.773H316.767V248H318.767ZM317.767 211.773H304.256V213.773H317.767V211.773ZM303.256 212.773V248H305.256V212.773H303.256ZM304.256 249H317.767V247H304.256V249ZM318.767 207.609V196.645H316.767V207.609H318.767ZM317.767 195.645H304.256V197.645H317.767V195.645ZM303.256 196.645V207.609H305.256V196.645H303.256ZM304.256 208.609H317.767V206.609H304.256V208.609ZM344.313 225.718L344.498 224.735L344.492 224.734L344.313 225.718ZM351.458 224.445L350.929 225.293L351.793 225.832L352.316 224.958L351.458 224.445ZM356.409 216.168L357.267 216.682L357.741 215.891L356.991 215.355L356.409 216.168ZM340.776 235.48L340.934 234.492L340.926 234.491L340.918 234.49L340.776 235.48ZM328.893 234.984L329.469 234.167L328.635 233.579L328.064 234.425L328.893 234.984ZM323.446 243.048L322.617 242.489L322.103 243.251L322.819 243.827L323.446 243.048ZM358.187 236.753C358.187 232.724 356.605 229.995 354.011 228.141C351.495 226.342 348.087 225.41 344.498 224.735L344.128 226.701C347.684 227.369 350.713 228.242 352.848 229.768C354.904 231.238 356.187 233.354 356.187 236.753H358.187ZM344.492 224.734C342.929 224.45 341.63 224.164 340.733 223.794C339.758 223.392 339.725 223.095 339.725 223.03H337.725C337.725 224.45 338.93 225.214 339.971 225.643C341.09 226.105 342.585 226.42 344.134 226.702L344.492 224.734ZM339.725 223.03C339.725 222.825 339.78 222.725 339.897 222.638C340.066 222.513 340.487 222.332 341.413 222.332V220.332C340.288 220.332 339.365 220.541 338.703 221.034C337.988 221.566 337.725 222.315 337.725 223.03H339.725ZM341.413 222.332C343.866 222.332 346.791 222.716 350.929 225.293L351.986 223.596C347.495 220.798 344.195 220.332 341.413 220.332V222.332ZM352.316 224.958L357.267 216.682L355.551 215.655L350.6 223.931L352.316 224.958ZM356.991 215.355C352.307 212.009 346.348 210.783 340.706 210.783V212.783C346.098 212.783 351.599 213.961 355.828 216.982L356.991 215.355ZM340.706 210.783C336.627 210.783 332.725 211.809 329.814 213.938C326.871 216.09 324.992 219.337 324.992 223.596H326.992C326.992 220.002 328.545 217.344 330.995 215.552C333.478 213.737 336.932 212.783 340.706 212.783V210.783ZM324.992 223.596C324.992 228.39 327.159 231.424 330.261 233.334C333.281 235.193 337.16 235.973 340.635 236.47L340.918 234.49C337.461 233.996 333.948 233.255 331.309 231.631C328.752 230.056 326.992 227.643 326.992 223.596H324.992ZM340.618 236.467C341.551 236.616 342.162 236.724 342.556 236.898C342.732 236.976 342.785 237.035 342.795 237.05C342.8 237.055 342.803 237.06 342.806 237.071C342.81 237.084 342.818 237.116 342.818 237.177H344.818C344.818 236.687 344.683 236.228 344.388 235.839C344.105 235.467 343.728 235.23 343.365 235.069C342.68 234.766 341.77 234.626 340.934 234.492L340.618 236.467ZM342.818 237.177C342.818 237.284 342.793 237.313 342.78 237.328C342.752 237.363 342.663 237.444 342.429 237.53C341.936 237.712 341.118 237.804 339.928 237.804V239.804C341.143 239.804 342.27 239.72 343.12 239.407C343.559 239.245 343.992 238.999 344.317 238.609C344.657 238.2 344.818 237.707 344.818 237.177H342.818ZM339.928 237.804C337.274 237.804 334.087 237.427 329.469 234.167L328.316 235.801C333.318 239.332 336.922 239.804 339.928 239.804V237.804ZM328.064 234.425L322.617 242.489L324.275 243.608L329.721 235.544L328.064 234.425ZM322.819 243.827C328.52 248.418 335.154 249.424 340.989 249.424V247.424C335.364 247.424 329.265 246.45 324.073 242.27L322.819 243.827ZM340.989 249.424C345.851 249.424 350.121 248.393 353.208 246.278C356.336 244.135 358.187 240.913 358.187 236.753H356.187C356.187 240.233 354.679 242.846 352.077 244.629C349.434 246.44 345.605 247.424 340.989 247.424V249.424ZM384.684 221.898V222.898H385.684V221.898H384.684ZM384.684 212.773H385.684V211.773H384.684V212.773ZM378.459 212.773H377.459V213.773H378.459V212.773ZM378.459 203.224H379.459V202.224H378.459V203.224ZM365.231 203.224V202.224H364.231V203.224H365.231ZM365.231 212.773V213.773H366.231V212.773H365.231ZM361.058 212.773V211.773H360.058V212.773H361.058ZM361.058 221.898H360.058V222.898H361.058V221.898ZM365.019 221.898H366.019V220.898H365.019V221.898ZM384.755 248V249H385.755V248H384.755ZM384.755 237.248H385.755V236.248H384.755V237.248ZM378.601 221.898V220.898H377.601V221.898H378.601ZM385.684 221.898V212.773H383.684V221.898H385.684ZM384.684 211.773H378.459V213.773H384.684V211.773ZM379.459 212.773V203.224H377.459V212.773H379.459ZM378.459 202.224H365.231V204.224H378.459V202.224ZM364.231 203.224V212.773H366.231V203.224H364.231ZM365.231 211.773H361.058V213.773H365.231V211.773ZM360.058 212.773V221.898H362.058V212.773H360.058ZM361.058 222.898H365.019V220.898H361.058V222.898ZM364.019 221.898V235.338H366.019V221.898H364.019ZM364.019 235.338C364.019 239.703 364.962 243.165 367.16 245.533C369.373 247.916 372.679 249 376.974 249V247C372.992 247 370.321 245.998 368.626 244.172C366.916 242.331 366.019 239.462 366.019 235.338H364.019ZM376.974 249H384.755V247H376.974V249ZM385.755 248V237.248H383.755V248H385.755ZM384.755 236.248H382.067V238.248H384.755V236.248ZM382.067 236.248C381.504 236.248 381.071 236.234 380.722 236.18C380.378 236.127 380.188 236.046 380.073 235.962C379.898 235.834 379.601 235.477 379.601 234.065H377.601C377.601 235.624 377.905 236.858 378.897 237.579C379.365 237.92 379.9 238.077 380.418 238.157C380.931 238.236 381.498 238.248 382.067 238.248V236.248ZM379.601 234.065V221.898H377.601V234.065H379.601ZM378.601 222.898H384.684V220.898H378.601V222.898ZM428.388 248V249H429.388V248H428.388ZM428.388 198.767H429.388V197.767H428.388V198.767ZM414.1 198.767V197.767H413.1V198.767H414.1ZM414.1 248H413.1V249H414.1V248ZM429.388 248V198.767H427.388V248H429.388ZM428.388 197.767H414.1V199.767H428.388V197.767ZM413.1 198.767V248H415.1V198.767H413.1ZM414.1 249H428.388V247H414.1V249ZM450.161 216.098H449.161V216.917L449.965 217.078L450.161 216.098ZM450.161 212.773H451.161V211.773H450.161V212.773ZM436.862 212.773V211.773H435.862V212.773H436.862ZM436.862 248H435.862V249H436.862V248ZM450.444 248V249H451.444V248H450.444ZM458.366 248H457.366V249H458.366V248ZM471.877 248V249H472.877V248H471.877ZM450.515 216.168L450.319 217.149L450.856 217.257L451.236 216.861L450.515 216.168ZM451.161 216.098V212.773H449.161V216.098H451.161ZM450.161 211.773H436.862V213.773H450.161V211.773ZM435.862 212.773V248H437.862V212.773H435.862ZM436.862 249H450.444V247H436.862V249ZM451.444 248V229.255H449.444V248H451.444ZM451.444 229.255C451.444 228.06 451.745 226.989 452.275 226.245C452.781 225.536 453.512 225.091 454.547 225.091V223.091C452.823 223.091 451.503 223.884 450.647 225.084C449.815 226.251 449.444 227.761 449.444 229.255H451.444ZM454.547 225.091C455.71 225.091 456.326 225.466 456.702 225.995C457.125 226.593 457.366 227.563 457.366 228.972H459.366C459.366 227.409 459.113 225.939 458.334 224.839C457.506 223.671 456.213 223.091 454.547 223.091V225.091ZM457.366 228.972V248H459.366V228.972H457.366ZM458.366 249H471.877V247H458.366V249ZM472.877 248V224.869H470.877V248H472.877ZM472.877 224.869C472.877 220.495 471.895 216.955 469.673 214.506C467.434 212.038 464.098 210.853 459.781 210.853V212.853C463.741 212.853 466.452 213.932 468.192 215.85C469.949 217.787 470.877 220.754 470.877 224.869H472.877ZM459.781 210.853C457.579 210.853 453.41 211.709 449.793 215.476L451.236 216.861C454.411 213.554 458.022 212.853 459.781 212.853V210.853ZM450.711 215.188L450.357 215.117L449.965 217.078L450.319 217.149L450.711 215.188ZM498.817 214.754L498.11 215.461L498.689 216.04L499.372 215.586L498.817 214.754ZM499.171 244.888V243.888H498.679L498.379 244.277L499.171 244.888ZM499.524 244.888H500.524V243.888H499.524V244.888ZM499.524 248H498.524V249H499.524V248ZM512.681 248V249H513.681V248H512.681ZM512.681 195.796H513.681V194.796H512.681V195.796ZM499.029 195.796V194.796H498.029V195.796H499.029ZM499.029 214.612L499.584 215.444L500.029 215.147V214.612H499.029ZM499.524 214.047C496.729 211.252 492.511 211.136 490.965 211.136V213.136C492.532 213.136 495.953 213.304 498.11 215.461L499.524 214.047ZM490.965 211.136C485.332 211.136 481.649 213.666 479.431 217.429C477.257 221.118 476.525 225.924 476.525 230.528H478.525C478.525 226.078 479.243 221.688 481.154 218.445C483.022 215.275 486.059 213.136 490.965 213.136V211.136ZM476.525 230.528C476.525 235.41 476.903 240.17 478.84 243.722C479.824 245.526 481.212 247.023 483.139 248.06C485.057 249.093 487.449 249.637 490.399 249.637V247.637C487.691 247.637 485.644 247.137 484.087 246.299C482.539 245.466 481.416 244.267 480.596 242.764C478.925 239.702 478.525 235.408 478.525 230.528H476.525ZM490.399 249.637C492.213 249.637 497.038 249.292 499.963 245.498L498.379 244.277C496.068 247.274 492.123 247.637 490.399 247.637V249.637ZM499.171 245.888H499.524V243.888H499.171V245.888ZM498.524 244.888V248H500.524V244.888H498.524ZM499.524 249H512.681V247H499.524V249ZM513.681 248V195.796H511.681V248H513.681ZM512.681 194.796H499.029V196.796H512.681V194.796ZM498.029 195.796V214.612H500.029V195.796H498.029ZM498.474 213.78L498.262 213.922L499.372 215.586L499.584 215.444L498.474 213.78ZM495.139 236.602C494.507 236.602 494.067 236.467 493.747 236.267C493.427 236.067 493.153 235.758 492.926 235.291C492.449 234.308 492.248 232.775 492.248 230.669H490.248C490.248 232.808 490.436 234.741 491.126 236.164C491.483 236.899 491.987 237.527 492.689 237.964C493.389 238.401 494.214 238.602 495.139 238.602V236.602ZM492.248 230.669C492.248 228.455 492.531 226.827 493.066 225.786C493.325 225.281 493.63 224.943 493.966 224.727C494.298 224.514 494.72 224.384 495.28 224.384V222.384C494.39 222.384 493.583 222.598 492.887 223.043C492.195 223.487 491.673 224.121 491.287 224.872C490.531 226.342 490.248 228.356 490.248 230.669H492.248ZM495.28 224.384C495.857 224.384 496.273 224.484 496.585 224.648C496.886 224.807 497.154 225.06 497.385 225.478C497.881 226.371 498.171 227.932 498.171 230.528H500.171C500.171 227.889 499.895 225.879 499.134 224.508C498.738 223.794 498.205 223.242 497.519 222.879C496.842 222.522 496.082 222.384 495.28 222.384V224.384ZM498.171 230.528C498.171 233.166 497.878 234.695 497.379 235.55C497.148 235.945 496.877 236.187 496.557 236.342C496.221 236.505 495.768 236.602 495.139 236.602V238.602C495.959 238.602 496.736 238.477 497.428 238.143C498.135 237.8 498.691 237.268 499.106 236.559C499.897 235.203 500.171 233.195 500.171 230.528H498.171ZM534.329 248V249H535.329V248H534.329ZM534.329 212.773H535.329V211.773H534.329V212.773ZM520.818 212.773V211.773H519.818V212.773H520.818ZM520.818 248H519.818V249H520.818V248ZM534.329 207.609V208.609H535.329V207.609H534.329ZM534.329 196.645H535.329V195.645H534.329V196.645ZM520.818 196.645V195.645H519.818V196.645H520.818ZM520.818 207.609H519.818V208.609H520.818V207.609ZM535.329 248V212.773H533.329V248H535.329ZM534.329 211.773H520.818V213.773H534.329V211.773ZM519.818 212.773V248H521.818V212.773H519.818ZM520.818 249H534.329V247H520.818V249ZM535.329 207.609V196.645H533.329V207.609H535.329ZM534.329 195.645H520.818V197.645H534.329V195.645ZM519.818 196.645V207.609H521.818V196.645H519.818ZM520.818 208.609H534.329V206.609H520.818V208.609ZM560.593 233.57L559.635 233.857L559.849 234.57H560.593V233.57ZM557.622 223.667L558.58 223.379L558.577 223.371L558.575 223.363L557.622 223.667ZM554.156 212.773L555.109 212.47L554.887 211.773H554.156V212.773ZM539.655 212.773V211.773H538.186L538.724 213.139L539.655 212.773ZM553.519 248L552.589 248.366L552.838 249H553.519V248ZM567.737 248V249H568.417L568.667 248.368L567.737 248ZM581.672 212.773L582.602 213.141L583.143 211.773H581.672V212.773ZM567.384 212.773V211.773H566.653L566.431 212.469L567.384 212.773ZM564.059 223.171L563.106 222.867L563.103 222.879L564.059 223.171ZM560.876 233.57V234.57H561.615L561.832 233.862L560.876 233.57ZM561.551 233.282L558.58 223.379L556.664 223.954L559.635 233.857L561.551 233.282ZM558.575 223.363L555.109 212.47L553.203 213.076L556.669 223.97L558.575 223.363ZM554.156 211.773H539.655V213.773H554.156V211.773ZM538.724 213.139L552.589 248.366L554.45 247.634L540.585 212.407L538.724 213.139ZM553.519 249H567.737V247H553.519V249ZM568.667 248.368L582.602 213.141L580.743 212.405L566.807 247.632L568.667 248.368ZM581.672 211.773H567.384V213.773H581.672V211.773ZM566.431 212.469L563.106 222.867L565.011 223.476L568.336 213.078L566.431 212.469ZM563.103 222.879L559.92 233.277L561.832 233.862L565.015 223.464L563.103 222.879ZM560.876 232.57H560.593V234.57H560.876V232.57ZM600.507 248V249H601.507V248H600.507ZM600.507 212.773H601.507V211.773H600.507V212.773ZM586.996 212.773V211.773H585.996V212.773H586.996ZM586.996 248H585.996V249H586.996V248ZM600.507 207.609V208.609H601.507V207.609H600.507ZM600.507 196.645H601.507V195.645H600.507V196.645ZM586.996 196.645V195.645H585.996V196.645H586.996ZM586.996 207.609H585.996V208.609H586.996V207.609ZM601.507 248V212.773H599.507V248H601.507ZM600.507 211.773H586.996V213.773H600.507V211.773ZM585.996 212.773V248H587.996V212.773H585.996ZM586.996 249H600.507V247H586.996V249ZM601.507 207.609V196.645H599.507V207.609H601.507ZM600.507 195.645H586.996V197.645H600.507V195.645ZM585.996 196.645V207.609H587.996V196.645H585.996ZM586.996 208.609H600.507V206.609H586.996V208.609ZM628.893 214.754L628.185 215.461L628.765 216.04L629.447 215.586L628.893 214.754ZM629.246 244.888V243.888H628.754L628.454 244.277L629.246 244.888ZM629.6 244.888H630.6V243.888H629.6V244.888ZM629.6 248H628.6V249H629.6V248ZM642.757 248V249H643.757V248H642.757ZM642.757 195.796H643.757V194.796H642.757V195.796ZM629.105 195.796V194.796H628.105V195.796H629.105ZM629.105 214.612L629.659 215.444L630.105 215.147V214.612H629.105ZM629.6 214.047C626.805 211.252 622.587 211.136 621.041 211.136V213.136C622.607 213.136 626.029 213.304 628.185 215.461L629.6 214.047ZM621.041 211.136C615.407 211.136 611.724 213.666 609.507 217.429C607.333 221.118 606.601 225.924 606.601 230.528H608.601C608.601 226.078 609.319 221.688 611.23 218.445C613.098 215.275 616.134 213.136 621.041 213.136V211.136ZM606.601 230.528C606.601 235.41 606.979 240.17 608.916 243.722C609.9 245.526 611.288 247.023 613.215 248.06C615.133 249.093 617.525 249.637 620.475 249.637V247.637C617.766 247.637 615.719 247.137 614.162 246.299C612.615 245.466 611.491 244.267 610.672 242.764C609.001 239.702 608.601 235.408 608.601 230.528H606.601ZM620.475 249.637C622.288 249.637 627.114 249.292 630.038 245.498L628.454 244.277C626.144 247.274 622.198 247.637 620.475 247.637V249.637ZM629.246 245.888H629.6V243.888H629.246V245.888ZM628.6 244.888V248H630.6V244.888H628.6ZM629.6 249H642.757V247H629.6V249ZM643.757 248V195.796H641.757V248H643.757ZM642.757 194.796H629.105V196.796H642.757V194.796ZM628.105 195.796V214.612H630.105V195.796H628.105ZM628.55 213.78L628.338 213.922L629.447 215.586L629.659 215.444L628.55 213.78ZM625.214 236.602C624.583 236.602 624.143 236.467 623.822 236.267C623.502 236.067 623.228 235.758 623.001 235.291C622.525 234.308 622.324 232.775 622.324 230.669H620.324C620.324 232.808 620.512 234.741 621.202 236.164C621.559 236.899 622.063 237.527 622.764 237.964C623.465 238.401 624.29 238.602 625.214 238.602V236.602ZM622.324 230.669C622.324 228.455 622.606 226.827 623.142 225.786C623.401 225.281 623.706 224.943 624.042 224.727C624.374 224.514 624.796 224.384 625.356 224.384V222.384C624.466 222.384 623.658 222.598 622.963 223.043C622.271 223.487 621.749 224.121 621.363 224.872C620.607 226.342 620.324 228.356 620.324 230.669H622.324ZM625.356 224.384C625.933 224.384 626.349 224.484 626.661 224.648C626.962 224.807 627.229 225.06 627.461 225.478C627.956 226.371 628.246 227.932 628.246 230.528H630.246C630.246 227.889 629.97 225.879 629.21 224.508C628.814 223.794 628.281 223.242 627.594 222.879C626.918 222.522 626.158 222.384 625.356 222.384V224.384ZM628.246 230.528C628.246 233.166 627.954 234.695 627.454 235.55C627.223 235.945 626.953 236.187 626.632 236.342C626.296 236.505 625.844 236.602 625.214 236.602V238.602C626.035 238.602 626.811 238.477 627.503 238.143C628.21 237.8 628.767 237.268 629.181 236.559C629.973 235.203 630.246 233.195 630.246 230.528H628.246ZM671.195 244.605H672.195V243.785L671.392 243.624L671.195 244.605ZM671.195 248H670.195V249H671.195V248ZM684.494 248V249H685.494V248H684.494ZM684.494 212.773H685.494V211.773H684.494V212.773ZM670.912 212.773V211.773H669.912V212.773H670.912ZM662.99 212.773H663.99V211.773H662.99V212.773ZM649.479 212.773V211.773H648.479V212.773H649.479ZM670.842 244.534L671.038 243.553L670.513 243.448L670.135 243.827L670.842 244.534ZM670.195 244.605V248H672.195V244.605H670.195ZM671.195 249H684.494V247H671.195V249ZM685.494 248V212.773H683.494V248H685.494ZM684.494 211.773H670.912V213.773H684.494V211.773ZM669.912 212.773V231.306H671.912V212.773H669.912ZM669.912 231.306C669.912 232.5 669.611 233.572 669.081 234.315C668.576 235.025 667.845 235.47 666.81 235.47V237.47C668.533 237.47 669.854 236.677 670.71 235.477C671.541 234.31 671.912 232.8 671.912 231.306H669.912ZM666.81 235.47C665.659 235.47 665.039 235.087 664.658 234.543C664.23 233.932 663.99 232.958 663.99 231.589H661.99C661.99 233.121 662.245 234.586 663.02 235.691C663.841 236.863 665.131 237.47 666.81 237.47V235.47ZM663.99 231.589V212.773H661.99V231.589H663.99ZM662.99 211.773H649.479V213.773H662.99V211.773ZM648.479 212.773V235.621H650.479V212.773H648.479ZM648.479 235.621C648.479 239.995 649.461 243.535 651.683 245.984C653.922 248.452 657.259 249.637 661.575 249.637V247.637C657.616 247.637 654.904 246.558 653.164 244.64C651.407 242.704 650.479 239.736 650.479 235.621H648.479ZM661.575 249.637C663.752 249.637 667.852 248.938 671.549 245.241L670.135 243.827C666.9 247.062 663.359 247.637 661.575 247.637V249.637ZM670.646 245.514L670.999 245.585L671.392 243.624L671.038 243.553L670.646 245.514Z" fill="#919191"/>
<g filter="url(#filter0_di_858_11679)">
<path d="M121 323.87C121 203.772 218.359 106.413 338.457 106.413C458.555 106.413 555.914 203.772 555.914 323.87V473.335H121V323.87Z" fill="#FECEFF"/>
<path d="M126.948 323.87C126.948 207.057 221.644 112.361 338.457 112.361C455.27 112.361 549.966 207.057 549.966 323.87V467.386H126.948V323.87Z" stroke="#F4F4F4" stroke-width="11.8964"/>
</g>
<path fill-rule="evenodd" clip-rule="evenodd" d="M347.739 348.925L341.502 354.873L341.359 370.374L389.185 382.322L437.676 377.415L467.182 370.374L453.067 344.447L347.739 348.925Z" fill="#F2BA95"/>
<path fill-rule="evenodd" clip-rule="evenodd" d="M467.182 370.933C467.182 370.933 386.113 374.031 341.372 368.148C340.553 368.141 339.756 368.414 339.112 368.92C338.469 369.426 338.016 370.136 337.83 370.933C336.932 373.875 335.369 385.003 335.369 385.003C335.369 385.003 315.76 398.039 311.928 455.5C311.928 459 311.929 456 311.929 461.5H485L472.651 386.304L467.182 370.933Z" fill="#514D8B"/>
<path fill-rule="evenodd" clip-rule="evenodd" d="M466.5 462H485L472.651 386.291L458.848 380.369L434.746 398.421L428.731 443.272L427.5 462H436.5C436.5 462 436 462 442 459C445.073 462.931 449.5 462 466.5 462Z" fill="#342A60"/>
<path fill-rule="evenodd" clip-rule="evenodd" d="M455.633 176C455.633 176 471.753 181.31 481.675 194.82C487.181 202.316 510.825 229.818 531.325 253.36C534.5 258 540.5 284.5 541 287.5C543.583 303 544.5 326.5 544 331C542.099 330.466 533.083 309.315 531.325 307.401C530.151 305.905 529.453 304.092 529.32 302.195L475.438 255.015C475.438 255.015 443.849 216.035 455.633 176Z" fill="#F2BA95"/>
<path fill-rule="evenodd" clip-rule="evenodd" d="M461.284 355.51L460.906 353.792C461.531 352.882 461.797 351.773 461.656 350.678C461.514 349.583 460.974 348.579 460.138 347.857L478.837 271.888C483.407 235.068 465.112 217.731 455.854 175.992C455.843 175.929 455.816 175.871 455.776 175.822C455.555 175.692 447.651 174.326 433.341 170.616L397.051 197.48L362.219 170.564C347.896 174.326 342.688 175.159 336.88 177.072C336.345 204.446 332.887 231.685 326.568 258.326C330.591 283.159 337.505 312.755 335.969 346.556C335.969 346.556 337.18 354.105 342.479 355.159C347.779 356.213 404.655 361.081 461.284 355.51Z" fill="#E84E7F"/>
<path fill-rule="evenodd" clip-rule="evenodd" d="M331.893 231.866C330.591 240.274 328.794 249.202 326.568 258.313C329.523 276.534 334.029 297.293 335.604 320.421C338.703 314.603 344.979 305.818 355.787 302.642C372.493 297.736 415.085 293.154 415.085 293.154L425.229 323.285L472.417 294.456L464.227 280.386H378.717C362.988 280.386 360.696 279.085 356.113 275.792C351.529 272.499 337.974 227.05 337.974 227.05L331.893 231.866Z" fill="#D02E66"/>
<path fill-rule="evenodd" clip-rule="evenodd" d="M442.78 172.933C440.033 172.282 436.882 171.501 433.34 170.564L397.05 197.428L362.219 170.564C357.961 171.684 354.51 172.543 351.606 173.245C354.601 187.406 367.049 212.291 418.183 204.586C418.183 204.586 442.481 196.113 442.78 172.933Z" fill="white"/>
<path fill-rule="evenodd" clip-rule="evenodd" d="M397.779 106.816C391.115 106.833 384.728 109.486 380.015 114.195C375.301 118.904 372.643 125.287 372.623 131.948V161.519C372.623 161.519 371.229 170.629 362.206 170.629C362.206 170.629 370.188 197.011 397.037 197.493H398.483C425.332 197.011 433.327 170.629 433.327 170.629C424.304 170.629 422.91 161.519 422.91 161.519V131.948C422.886 125.292 420.231 118.916 415.524 114.208C410.817 109.5 404.438 106.843 397.779 106.816Z" fill="#EE8B83"/>
<path fill-rule="evenodd" clip-rule="evenodd" d="M373.82 155.18C376.484 153.144 379.844 152.243 383.17 152.675C386.495 153.106 389.514 154.835 391.568 157.484L393.769 160.321C395.814 162.977 396.724 166.334 396.299 169.659C395.874 172.983 394.15 176.004 391.503 178.061C388.835 180.095 385.469 180.989 382.142 180.548C378.816 180.106 375.8 178.365 373.755 175.705L371.607 172.92C369.556 170.271 368.638 166.918 369.053 163.594C369.467 160.27 371.182 157.245 373.82 155.18Z" fill="#383268"/>
<path fill-rule="evenodd" clip-rule="evenodd" d="M390.696 174.859C392.865 172.303 395.958 170.71 399.3 170.429C402.641 170.148 405.958 171.203 408.522 173.362L411.27 175.679C413.824 177.846 415.415 180.936 415.695 184.273C415.976 187.609 414.923 190.921 412.767 193.484C410.597 196.036 407.505 197.628 404.165 197.91C400.826 198.193 397.51 197.145 394.941 194.994L392.194 192.625C389.654 190.457 388.073 187.376 387.793 184.05C387.512 180.724 388.556 177.421 390.696 174.859Z" fill="#383268"/>
<path fill-rule="evenodd" clip-rule="evenodd" d="M404.381 192.443C404.381 192.443 398.13 203.284 405.097 214.178C426.048 246.95 437.65 213.462 426.608 195.085C425.553 193.168 424.056 191.531 422.241 190.308C420.427 189.085 418.347 188.312 416.173 188.054C414 187.796 411.797 188.059 409.746 188.822C407.695 189.586 405.856 190.827 404.381 192.443Z" fill="#383268"/>
<path fill-rule="evenodd" clip-rule="evenodd" d="M432.598 31.0933C457.508 38.0825 450.828 75.1888 447.807 96.9242C445.593 112.946 432.273 126.482 417.481 139.562L416.178 130.139C415.99 128.718 415.649 127.322 415.163 125.974L408.275 126.911L407.454 123.319L380.774 127.835C386.946 143.727 395.657 169.367 372.61 161.519C349.562 153.67 350.148 127.796 343.364 112.438C337.948 100.217 327.596 83.2192 328.195 70.9849C328.455 65.6487 337.166 64.9068 338.612 59.6356C354.68 1.21039 410.02 0.950081 432.598 31.0933Z" fill="#383268"/>
<path fill-rule="evenodd" clip-rule="evenodd" d="M440.372 95.011C440.372 95.011 444.877 89.6617 448.406 89.4665C451.934 89.2713 457.104 95.037 457.26 99.8786C457.416 104.72 453.041 122.343 440.736 117.553C428.431 112.764 440.372 95.011 440.372 95.011Z" fill="#F2BA95"/>
<path fill-rule="evenodd" clip-rule="evenodd" d="M436.712 101.011C436.539 101.178 436.434 101.404 436.417 101.644C436.4 101.885 436.473 102.123 436.621 102.312C436.768 102.449 436.961 102.525 437.162 102.525C437.362 102.525 437.555 102.449 437.702 102.312C437.702 102.312 442.78 116.629 445.046 114.026C447.312 111.423 449.72 108.82 450.254 104.916C450.788 101.011 446.465 98.1216 447.754 96.9502C449.043 95.7788 450.619 97.0934 450.762 97.2105C451.582 97.9354 452.273 98.7934 452.806 99.7485C452.858 99.8471 452.931 99.9327 453.02 99.9988C453.109 100.065 453.213 100.11 453.322 100.13C453.431 100.15 453.544 100.145 453.651 100.115C453.758 100.085 453.856 100.031 453.939 99.9567C454.143 99.8169 454.291 99.6099 454.358 99.3721C454.424 99.1342 454.405 98.8805 454.304 98.6552C454.304 98.6552 451.556 93.2929 446.752 94.1259C442.207 95.011 436.712 100.985 436.712 101.011Z" fill="#F0917E"/>
<path fill-rule="evenodd" clip-rule="evenodd" d="M347.479 107.662C347.479 107.662 341.698 103.757 338.26 104.46C334.823 105.163 331.359 112.152 332.544 116.877C333.729 121.601 342.583 137.362 353.17 129.449C363.756 121.536 347.479 107.662 347.479 107.662Z" fill="#F2BA95"/>
<path fill-rule="evenodd" clip-rule="evenodd" d="M352.584 112.438C352.793 112.554 352.954 112.742 353.035 112.967C353.116 113.192 353.114 113.439 353.027 113.662C352.923 113.834 352.758 113.961 352.565 114.017C352.372 114.072 352.164 114.052 351.985 113.961C351.985 113.961 350.93 129.15 348.079 127.198C345.227 125.245 342.167 123.41 340.579 119.818C338.99 116.226 342.415 112.243 340.865 111.462C339.316 110.681 338.144 112.373 338.026 112.529C337.416 113.441 336.975 114.455 336.724 115.523C336.696 115.629 336.645 115.728 336.575 115.812C336.505 115.897 336.417 115.965 336.318 116.012C336.219 116.059 336.111 116.084 336.001 116.085C335.891 116.086 335.783 116.063 335.683 116.018C335.454 115.938 335.26 115.782 335.134 115.575C335.008 115.369 334.958 115.125 334.993 114.885C334.993 114.885 336.204 108.989 341.06 108.508C345.683 108.026 352.571 112.425 352.584 112.438Z" fill="#F0917E"/>
<path fill-rule="evenodd" clip-rule="evenodd" d="M383.509 24.7289C445.919 17.1671 443.406 66.8721 443.185 106.725C443.252 116.517 440.543 126.129 435.372 134.447C435.372 134.447 419.864 152.278 414.239 156.313C410.546 158.698 406.373 160.241 402.016 160.833C397.659 161.424 393.226 161.05 389.03 159.736C382.519 157.328 362.87 144.3 362.87 144.3C355.663 137.689 350.476 129.174 347.909 119.74C337.089 81.358 321.333 34.1389 383.509 24.7289Z" fill="#F2BA95"/>
<path fill-rule="evenodd" clip-rule="evenodd" d="M434.512 71.6747C434.512 71.6747 412.233 76.0738 409.616 53.8959C406.998 31.718 403.105 48.0911 403.105 48.0911L397.897 53.2972C397.897 53.2972 367.805 87.8005 348.026 87.1367C328.247 86.473 350.969 66.6638 353.234 64.8677C355.5 63.0716 419.642 38.9935 419.642 38.9935L434.512 71.6747Z" fill="#EE8B83"/>
<path fill-rule="evenodd" clip-rule="evenodd" d="M352.531 72.2604C352.531 72.2604 354.836 96.9893 346.02 112.933C346.02 112.933 332.648 75.7354 336.424 68.9936C340.2 62.2517 352.531 72.2604 352.531 72.2604Z" fill="#383268"/>
<path fill-rule="evenodd" clip-rule="evenodd" d="M427.22 66.6118C427.22 66.6118 432.598 89.974 443.223 98.1606C443.223 98.1606 444.604 64.3211 440.684 59.4664C436.765 54.6117 427.22 66.6118 427.22 66.6118Z" fill="#383268"/>
<path fill-rule="evenodd" clip-rule="evenodd" d="M435.475 69.3189C435.475 69.3189 412.753 71.0239 409.98 52.9719C405.084 66.1693 391.62 65.9871 397.896 53.2582C382.271 63.9697 345.252 96.3776 327.686 83.4925C302.946 65.2712 319.418 19.5879 340.33 40.243C345.955 0.65073 426.295 -22.6335 438.014 32.8764C438.014 32.8764 466.439 51.1367 435.475 69.3189Z" fill="#403B79"/>
<path fill-rule="evenodd" clip-rule="evenodd" d="M320.721 39.9437C332.062 52.9589 354.211 58.3472 391.49 35.0239C391.49 35.0239 345.916 87.3971 315.46 61.1715C314.666 52.9459 316.801 44.9025 320.721 39.9437Z" fill="#514D8B"/>
<path fill-rule="evenodd" clip-rule="evenodd" d="M435.475 69.3189C435.475 69.3189 412.753 71.0239 409.98 52.9718C406.477 62.4079 398.586 65.0369 396.685 61.0803C396.789 61.0803 399.797 63.0326 404.954 55.6269C410.11 48.2213 410.93 47.2061 414.537 51.6183C417.727 55.5228 443.535 69.4751 449.85 49.3796C450.501 55.3536 447.363 62.3948 435.527 69.3189H435.475ZM397.896 53.2582C397.896 53.2582 386.477 54.6638 356.333 68.9805C326.189 83.2973 316.618 67.3406 316.618 67.3406C318.406 73.7955 322.302 79.4673 327.686 83.4534C345.252 96.3775 382.284 63.9697 397.896 53.2582Z" fill="#383268"/>
<path fill-rule="evenodd" clip-rule="evenodd" d="M336.879 177.007C320.85 181.12 303.024 208.517 284.99 225.775C284.473 226.276 283.84 226.644 283.148 226.846C282.456 227.048 281.725 227.078 281.019 226.933L272.75 229.406C272.75 229.406 276.331 248.929 272.347 275.818L269.091 277.731L272.503 281.519C272.901 281.915 273.407 282.186 273.957 282.299C274.508 282.412 275.079 282.363 275.602 282.157C277.503 281.454 326.567 258.261 326.567 258.261C326.567 258.261 349.145 219.879 336.879 177.007Z" fill="#F2BA95"/>
<path fill-rule="evenodd" clip-rule="evenodd" d="M294.965 144.469C293.691 147.039 292.846 149.8 292.465 152.642C292.178 156.456 284.183 266.031 283.936 270.456C283.689 274.881 279.509 282.482 269.522 284.317C259.534 286.152 244.742 275.792 244 264.209C243.258 252.625 264.053 157.809 265.511 148.907C266.969 140.005 265.654 137.831 265.654 137.831L294.965 144.469Z" fill="#F2BA95"/>
<path fill-rule="evenodd" clip-rule="evenodd" d="M294.965 144.469C293.691 147.039 292.846 149.8 292.465 152.642C292.465 153.267 292.165 156.716 291.775 162.039C289.678 159.436 285.264 154.1 283.363 151.757C281.598 149.76 279.312 148.291 276.761 147.514L285.225 142.308L294.965 144.469Z" fill="#EE8B83"/>
<path fill-rule="evenodd" clip-rule="evenodd" d="M295.408 100.738L299.079 64.8808C299.318 64.0593 299.248 63.1792 298.884 62.4052C298.52 61.6313 297.885 61.0168 297.1 60.6769C294.249 59.3754 290.668 60.5858 289.952 67.4708C289.236 74.3559 286.462 101.31 286.462 101.31L269.456 106.191C266.851 109.619 264.666 113.346 262.946 117.293C260.74 122.593 260.173 128.432 261.318 134.057C262.126 139.432 265.225 145.952 269.196 146.942C273.167 147.931 291.332 147.84 294.965 144.443C294.965 144.443 303.285 125.922 304.184 123.332C305.082 120.742 304.535 120.195 305.486 118.126C306.436 116.057 320.252 88.5294 322.934 83.3363C325.617 78.1433 322.218 75.0196 320.512 74.8374C318.806 74.6552 315.056 75.5533 312.908 80.473C310.759 85.3928 299.483 103.328 299.04 103.9C298.598 104.473 295.277 102.82 295.408 100.738Z" fill="#F2BA95"/>
<path fill-rule="evenodd" clip-rule="evenodd" d="M281.591 98.6422L284.69 101.87L284.365 108.247L279.312 108.794L281.591 98.6422Z" fill="#F2BA95"/>
<path fill-rule="evenodd" clip-rule="evenodd" d="M270.993 102.169L272.685 103.158L273.128 106.373L275.185 108.963L274.118 112.907L269.417 109.952L270.993 102.169Z" fill="#F2BA95"/>
<path fill-rule="evenodd" clip-rule="evenodd" d="M270.992 102.169C270.992 102.169 271.07 110.135 270.992 111.696C270.914 113.258 269.56 113.714 267.633 113.935C265.706 114.156 264.768 112.907 264.416 111.254C264.065 109.601 263.609 105.488 264.677 103.731C265.745 101.974 270.042 101.519 270.992 102.169Z" fill="#F2BA95"/>
<path fill-rule="evenodd" clip-rule="evenodd" d="M281.592 98.6422C281.592 98.6422 281.944 110.174 282.126 114.651C282.308 119.128 280.16 120.508 278.767 120.599C277.373 120.69 273.949 121.041 273.272 116.89C272.594 112.738 271.969 103.874 271.969 102.13C271.969 100.386 275.863 94.5294 281.592 98.6422Z" fill="#F2BA95"/>
<path fill-rule="evenodd" clip-rule="evenodd" d="M269.195 146.981C273.102 147.97 291.331 147.879 294.964 144.482C294.964 144.482 298.532 136.529 301.253 130.321C301.253 130.321 297.425 134.864 295.811 129.592C294.196 124.321 293.402 120.82 292.946 119.388C292.067 117.47 290.932 115.68 289.574 114.065C288.402 112.595 284.912 107.935 284.157 107.271C283.402 106.608 278.336 108.573 278.076 112.946C277.815 117.319 282.998 125.961 282.998 125.961C282.998 125.961 266.591 132.755 269.195 146.981Z" fill="#F2BA95"/>
<path fill-rule="evenodd" clip-rule="evenodd" d="M295.81 129.579C294.209 124.373 293.401 120.82 292.946 119.388C292.066 117.47 290.932 115.68 289.573 114.065C288.401 112.595 284.912 107.935 284.156 107.271C283.883 107.024 283.037 107.128 282.047 107.584C280.963 108.036 280.021 108.773 279.322 109.717C278.622 110.661 278.192 111.777 278.076 112.946C277.802 117.332 282.998 125.961 282.998 125.961C282.998 125.961 266.591 132.755 269.195 146.981L295.81 129.579ZM280.042 120.182C279.647 120.422 279.2 120.565 278.74 120.599C277.359 120.69 273.87 121.002 273.245 116.89C272.62 112.777 271.943 103.874 271.943 102.13C271.943 100.386 275.784 94.5294 281.513 98.6422C281.513 98.6422 281.656 103.185 281.8 107.675L279.964 120.182H280.042ZM270.992 102.169C270.992 102.169 271.07 110.135 270.992 111.696C270.914 113.258 269.56 113.714 267.633 113.935C265.706 114.156 264.768 112.907 264.416 111.254C264.065 109.601 263.609 105.488 264.677 103.731C265.745 101.974 270.042 101.519 270.992 102.169Z" fill="#F2BA95"/>
<path fill-rule="evenodd" clip-rule="evenodd" d="M296.917 129.254C296.979 129.539 296.932 129.837 296.784 130.089C296.635 130.341 296.398 130.527 296.118 130.611C295.838 130.695 295.537 130.67 295.275 130.542C295.012 130.413 294.808 130.19 294.703 129.918C293.662 126.482 292.959 123.853 292.477 122.031C292.177 121.041 292.008 120.247 291.839 119.74C291.512 118.904 291.074 118.116 290.537 117.397C289.899 116.473 289.169 115.51 288.597 114.794L287.294 113.141C285.914 111.358 284.052 108.924 283.388 108.26C283.1 108.305 282.82 108.388 282.555 108.508C282.41 108.633 282.235 108.718 282.047 108.755C281.254 109.18 280.561 109.771 280.016 110.486C279.475 111.203 279.158 112.063 279.104 112.959C279.232 115.188 279.826 117.365 280.849 119.349C280.92 119.419 280.981 119.498 281.031 119.584C281.13 119.75 281.188 119.937 281.201 120.13C282.018 121.911 282.927 123.648 283.922 125.336C284.08 125.599 284.128 125.913 284.055 126.211C283.982 126.509 283.793 126.765 283.531 126.924L283.323 127.015C282.229 127.497 267.984 134.018 270.302 146.785C270.347 147.08 270.276 147.381 270.104 147.624C269.931 147.867 269.671 148.033 269.377 148.087C269.083 148.129 268.784 148.057 268.542 147.885C268.299 147.713 268.132 147.454 268.075 147.163C265.744 134.46 277.516 127.341 281.331 125.388C280.836 124.516 280.12 123.176 279.404 121.653L278.87 121.731H278.779C277.034 121.848 272.919 122.109 272.151 117.033C271.995 116.044 271.838 114.768 271.695 113.388C271.418 113.764 271.062 114.075 270.653 114.299H270.575C269.713 114.71 268.781 114.953 267.828 115.015C267.306 115.115 266.768 115.102 266.251 114.976C265.734 114.851 265.251 114.615 264.833 114.286C264.017 113.555 263.476 112.568 263.297 111.488C262.979 109.903 262.839 108.288 262.88 106.673C262.858 105.443 263.14 104.227 263.7 103.132C263.704 103.098 263.704 103.063 263.7 103.028L263.778 102.937C264.776 101.829 266.13 101.106 267.606 100.894C268.733 100.639 269.905 100.666 271.018 100.972C271.258 100.348 271.578 99.7575 271.969 99.2149C272.584 98.3481 273.362 97.6098 274.26 97.0413C275.332 96.3592 276.584 96.0146 277.854 96.0522C279.459 96.1416 280.999 96.7182 282.268 97.7051C282.412 97.8075 282.531 97.9418 282.615 98.0976C282.698 98.2534 282.745 98.4265 282.75 98.6032C282.75 98.6032 282.854 102.117 282.984 106.048H283.115C283.416 105.983 283.727 105.983 284.028 106.048C284.329 106.113 284.612 106.242 284.859 106.425C285.511 107.011 287.633 109.757 289.156 111.749L290.459 113.362C291.045 114.104 291.761 115.106 292.49 116.109C293.157 117.015 293.696 118.009 294.091 119.063C294.261 119.584 294.469 120.365 294.756 121.445C295.25 123.306 295.953 125.961 296.956 129.254H296.917ZM283.44 108.247L283.323 108.13C283.219 108.039 283.414 108.234 283.453 108.286L283.44 108.247ZM278.232 109.158C278.907 108.269 279.747 107.518 280.706 106.946C280.602 103.692 280.497 100.529 280.458 99.2669C279.687 98.7394 278.787 98.4292 277.854 98.3689C277.07 98.3503 276.299 98.568 275.641 98.9936C274.982 99.397 274.408 99.9228 273.948 100.542C273.566 101.011 273.302 101.564 273.18 102.156C273.18 103.028 273.349 106.061 273.622 109.328C273.857 112.035 274.143 114.872 274.43 116.707C274.859 119.519 277.203 119.532 278.414 119.454C277.463 117.411 276.936 115.197 276.865 112.946C276.947 111.598 277.423 110.305 278.232 109.224V109.158ZM269.872 111.67C269.872 110.369 269.872 105.072 269.872 103.015C269.304 102.988 268.735 103.036 268.179 103.158C267.279 103.266 266.438 103.664 265.784 104.291C265.412 105.049 265.216 105.881 265.211 106.725C265.183 108.148 265.309 109.571 265.588 110.968C265.672 111.536 265.932 112.064 266.33 112.477C266.504 112.601 266.701 112.688 266.909 112.735C267.116 112.782 267.331 112.787 267.541 112.751C268.194 112.701 268.835 112.552 269.442 112.308C269.567 112.254 269.674 112.165 269.75 112.052C269.826 111.939 269.869 111.807 269.872 111.67Z" fill="#EE8B83"/>
<path fill-rule="evenodd" clip-rule="evenodd" d="M335.147 386.083C334.853 386.019 334.596 385.844 334.429 385.593C334.262 385.343 334.199 385.038 334.253 384.743C334.307 384.447 334.474 384.184 334.719 384.009C334.963 383.834 335.266 383.761 335.564 383.805C335.564 383.805 338.519 384.365 343.376 385.107H343.507C356.772 387.215 370.143 388.593 383.559 389.233H383.651C390.044 389.48 396.489 389.493 402.583 389.129C402.891 389.111 403.192 389.217 403.422 389.422C403.651 389.627 403.79 389.915 403.807 390.222C403.825 390.529 403.719 390.83 403.514 391.06C403.309 391.289 403.021 391.428 402.714 391.445C396.75 391.797 390.435 391.797 384.145 391.562C382.244 394.335 373.312 406.933 366.723 409.237C360.134 411.541 338.493 411.28 333.975 411.28C330.069 422.708 326.306 436.842 325.72 450.69C325.561 454.508 325.44 458.113 325.349 461.5H323.054C323.146 458.069 323.268 454.416 323.428 450.547C324.587 422.695 338.194 393.827 341.514 387.176C337.608 386.538 335.199 386.096 335.173 386.083H335.147ZM381.398 391.497C368.84 390.824 356.324 389.521 343.897 387.593C340.441 394.535 337.397 401.676 334.782 408.977C340.538 409.055 360.121 409.172 365.942 407.142C371.242 405.293 378.572 395.532 381.398 391.523V391.497ZM427.597 442.374C427.603 442.222 427.639 442.072 427.703 441.934C427.766 441.796 427.857 441.671 427.969 441.568C428.194 441.359 428.494 441.249 428.801 441.261C428.954 441.267 429.103 441.303 429.241 441.367C429.38 441.43 429.504 441.521 429.607 441.632C429.711 441.744 429.791 441.875 429.844 442.018C429.897 442.161 429.921 442.313 429.915 442.465C429.915 442.521 429.499 451.027 429.252 462H426.936C427.182 450.983 427.597 442.443 427.597 442.374Z" fill="#383268"/>
<path fill-rule="evenodd" clip-rule="evenodd" d="M286.137 223.497C286.147 223.345 286.187 223.196 286.255 223.06C286.323 222.923 286.417 222.801 286.532 222.701C286.647 222.601 286.78 222.524 286.925 222.475C287.069 222.426 287.222 222.407 287.374 222.417C287.526 222.427 287.675 222.467 287.812 222.535C287.948 222.603 288.07 222.696 288.171 222.811C288.271 222.926 288.348 223.06 288.397 223.204C288.445 223.348 288.465 223.501 288.455 223.653L286.358 252.586C286.347 252.744 286.304 252.897 286.232 253.038C286.16 253.178 286.06 253.303 285.938 253.404C285.816 253.505 285.676 253.58 285.524 253.625C285.372 253.67 285.213 253.684 285.056 253.666C284.899 253.653 284.746 253.609 284.607 253.536C284.467 253.464 284.343 253.364 284.243 253.242C284.142 253.121 284.066 252.981 284.021 252.83C283.975 252.68 283.959 252.521 283.976 252.365L286.137 223.497Z" fill="#EE8B83"/>
<defs>
<filter id="filter0_di_858_11679" x="75.7938" y="74.2925" width="527.706" height="459.714" filterUnits="userSpaceOnUse" color-interpolation-filters="sRGB">
<feFlood flood-opacity="0" result="BackgroundImageFix"/>
<feColorMatrix in="SourceAlpha" type="matrix" values="0 0 0 0 0 0 0 0 0 0 0 0 0 0 0 0 0 0 127 0" result="hardAlpha"/>
<feMorphology radius="13.086" operator="dilate" in="SourceAlpha" result="effect1_dropShadow_858_11679"/>
<feOffset dx="1.18964" dy="14.2757"/>
<feGaussianBlur stdDeviation="16.6549"/>
<feComposite in2="hardAlpha" operator="out"/>
<feColorMatrix type="matrix" values="0 0 0 0 0 0 0 0 0 0 0 0 0 0 0 0 0 0 0.12 0"/>
<feBlend mode="normal" in2="BackgroundImageFix" result="effect1_dropShadow_858_11679"/>
<feBlend mode="normal" in="SourceGraphic" in2="effect1_dropShadow_858_11679" result="shape"/>
<feColorMatrix in="SourceAlpha" type="matrix" values="0 0 0 0 0 0 0 0 0 0 0 0 0 0 0 0 0 0 127 0" result="hardAlpha"/>
<feOffset dy="2.37928"/>
<feGaussianBlur stdDeviation="1.18964"/>
<feComposite in2="hardAlpha" operator="arithmetic" k2="-1" k3="1"/>
<feColorMatrix type="matrix" values="0 0 0 0 0 0 0 0 0 0 0 0 0 0 0 0 0 0 0.25 0"/>
<feBlend mode="normal" in2="shape" result="effect2_innerShadow_858_11679"/>
</filter>
</defs>
</svg>
